<svg width="40" height="40" viewBox="0 0 40 40" fill="none" xmlns="http://www.w3.org/2000/svg">
<path d="M23.9232 5.04482L23.2394 0.723324C23.1737 0.307361 22.8032 0 22.3691 0H17.2347C16.8007 0 16.4301 0.307361 16.3645 0.723324L15.6806 5.04482C15.1936 5.04482 14.7998 5.42595 14.7998 5.89724V38.7234C14.7998 39.4283 15.3905 40 16.1189 40H23.4807C24.2091 40 24.7998 39.4283 24.7998 38.7234V5.89724C24.7998 5.42595 24.406 5.04482 23.919 5.04482H23.9232ZM20.6563 27.5826C20.6563 27.9596 20.3408 28.2649 19.9512 28.2649H19.6527C19.2631 28.2649 18.9476 27.9596 18.9476 27.5826V19.2039C18.9476 18.8269 19.2631 18.5216 19.6527 18.5216H19.9512C20.3408 18.5216 20.6563 18.8269 20.6563 19.2039V27.5826ZM24.2705 8.77619H15.8225V39.5471C15.5049 39.3832 15.2889 39.0595 15.2889 38.6865V6.5427H24.2705V8.77619Z" fill="#0B0B0B"/>
</svg>
