<svg width="40" height="40" viewBox="0 0 40 40" fill="none" xmlns="http://www.w3.org/2000/svg">
<path d="M18.4589 37.1429H21.3474V39.4348C21.3474 39.7465 21.0911 40 20.776 40H19.0303C18.7152 40 18.4589 39.7465 18.4589 39.4348V37.1429Z" fill="#0B0B0B"/>
<path d="M22.1203 0H17.7133C17.3795 0 17.1737 0.299767 17.3564 0.524598C18.0765 1.41582 18.5301 2.71214 18.5301 4.15632C18.5301 5.93876 17.8393 7.49434 16.8084 8.34303V8.36735H22.9979C21.9691 7.52069 21.2784 5.96307 21.2784 4.18468C21.2784 2.72632 21.7403 1.41987 22.473 0.528653C22.6578 0.303822 22.452 0.00201512 22.1182 0.00201512L22.1203 0Z" fill="#0B0B0B"/>
<path d="M29.6 12.449H28.3621V31.4286H29.6V12.449Z" fill="#0B0B0B"/>
<path d="M29.5979 11.8367V10.5841C29.5979 9.81098 28.9485 9.18367 28.1481 9.18367H11.4498C10.6494 9.18367 10 9.81098 10 10.5841V11.8367H29.6H29.5979Z" fill="#0B0B0B"/>
<path d="M11.2379 12.449H10V31.4286H11.2379V12.449Z" fill="#0B0B0B"/>
<path d="M10.0021 32.0408V34.8863C10.0021 35.6814 10.6515 36.3265 11.4518 36.3265H28.1502C28.9506 36.3265 29.6 35.6814 29.6 34.8863V32.0408H10H10.0021Z" fill="#0B0B0B"/>
<path d="M27.5368 12.449H13.0947V31.4286H27.5368V12.449Z" fill="#0B0B0B"/>
</svg>
