<svg width="40" height="40" viewBox="0 0 40 40" fill="none" xmlns="http://www.w3.org/2000/svg">
<path d="M32.3192 0H6.05905C5.36374 0 4.7998 0.570869 4.7998 1.27474V38.7253C4.7998 39.4291 5.36374 40 6.05905 40H32.3192C33.0145 40 33.5785 39.4291 33.5785 38.7253V1.27474C33.5785 0.570869 33.0145 0 32.3192 0ZM25.1498 38.4531C25.1498 38.891 24.7981 39.247 24.3656 39.247H6.39458C5.96203 39.247 5.61033 38.891 5.61033 38.4531V1.54688C5.61033 1.10901 5.96203 0.752978 6.39458 0.752978H24.3656C24.7981 0.752978 25.1498 1.10901 25.1498 1.54688V38.4531ZM32.7679 38.4531C32.7679 38.891 32.4162 39.247 31.9837 39.247H31.5612C31.7512 39.1017 31.8766 38.8726 31.8766 38.6127V1.38933C31.8766 1.12947 31.7533 0.898256 31.5612 0.755026H31.9837C32.4162 0.755026 32.7679 1.11106 32.7679 1.54893V38.4552V38.4531Z" fill="#0B0B0B"/>
<path d="M21.5681 1.42858H18.6342C17.9783 1.42858 17.4362 1.96402 17.3651 2.65307H22.8371C22.7661 1.96402 22.2239 1.42858 21.5681 1.42858Z" fill="#0B0B0B"/>
<path d="M15.7438 37.7478C15.7438 38.0895 16.0177 38.3674 16.3545 38.3674H23.8477C24.1846 38.3674 24.4585 38.0895 24.4585 37.7478V36.9388H15.7438V37.7478Z" fill="#0B0B0B"/>
<path d="M23.8477 3.06122H16.3545C16.0177 3.06122 15.7438 3.33609 15.7438 3.67408V36.3265H24.4585V3.67408C24.4585 3.33609 24.1846 3.06122 23.8477 3.06122Z" fill="#0B0B0B"/>
<path d="M9.31149 38.3674H12.2455C12.9013 38.3674 13.4434 37.8319 13.5145 37.1429H8.04248C8.11354 37.8319 8.65567 38.3674 9.31149 38.3674Z" fill="#0B0B0B"/>
<path d="M15.1358 2.04816C15.1358 1.70646 14.8619 1.42857 14.5251 1.42857H7.03188C6.69506 1.42857 6.42114 1.70646 6.42114 2.04816V2.85714H15.1358V2.04816Z" fill="#0B0B0B"/>
<path d="M7.03188 36.5306H14.5251C14.8619 36.5306 15.1358 36.2557 15.1358 35.9178V3.26531H6.42114V35.9178C6.42114 36.2557 6.69506 36.5306 7.03188 36.5306Z" fill="#0B0B0B"/>
<path d="M34.4326 11.4286H34.1865V3.26529H34.4326C34.8563 3.26529 35.1998 3.63477 35.1998 4.09045V10.6034C35.1998 11.0591 34.8563 11.4286 34.4326 11.4286Z" fill="#0B0B0B"/>
<path d="M34.3952 36.5306H34.1865V34.0816H34.3952C34.7276 34.0816 34.9971 34.3491 34.9971 34.6788V35.9314C34.9971 36.2612 34.7276 36.5286 34.3952 36.5286V36.5306Z" fill="#0B0B0B"/>
<path d="M34.3952 32.6531H34.1865V30.2041H34.3952C34.7276 30.2041 34.9971 30.4715 34.9971 30.8013V32.0539C34.9971 32.3836 34.7276 32.6511 34.3952 32.6511V32.6531Z" fill="#0B0B0B"/>
</svg>
