<svg width="40" height="40" viewBox="0 0 40 40" fill="none" xmlns="http://www.w3.org/2000/svg">
<path d="M16.1493 14.2988L15.7113 15.0618C15.6273 15.2083 15.6912 15.4038 15.8542 15.4985L27.1352 22.0499C27.2982 22.1445 27.4985 22.1025 27.5826 21.956L28.0206 21.1929C28.1047 21.0464 28.0407 20.8509 27.8777 20.7562L16.5967 14.2049C16.4337 14.1102 16.2334 14.1522 16.1493 14.2988Z" fill="#0B0B0B"/>
<path d="M26.9684 22.0743L16.0679 15.77C15.4627 15.4197 14.6918 15.6286 14.3422 16.2328L5.36986 31.797C5.02021 32.4033 5.22878 33.1755 5.83197 33.5257L16.7325 39.83C17.3377 40.1803 18.1086 39.9714 18.4582 39.3672L27.4305 23.803C27.7802 23.1967 27.5716 22.4245 26.9684 22.0743ZM18.0472 38.9493C17.7978 39.3815 17.2457 39.531 16.8143 39.2811L6.26955 33.1837C5.83811 32.9338 5.68884 32.3808 5.9383 31.9486L9.08311 26.4902H25.2283L18.0472 38.9514V38.9493Z" fill="#0B0B0B"/>
<path d="M34.5855 10.6141C32.1408 7.81522 31.4275 4.03481 32.657 0.673278C32.6976 0.560741 32.6529 0.433616 32.5513 0.373179L31.9762 0.0334838C31.8746 -0.0269529 31.7445 -0.00402864 31.6693 0.0897523C29.4461 2.8615 25.8938 4.114 22.3111 3.34708L31.3503 8.69885C31.4153 8.73636 31.4377 8.8218 31.4011 8.88849L31.3767 8.93226C31.3381 8.99895 31.2568 9.02187 31.1918 8.98227L21.6892 3.58466L16.4564 12.8815C16.3405 13.0878 16.4096 13.3525 16.6108 13.4733L28.8873 20.7424C29.0884 20.8612 29.3486 20.7903 29.4644 20.584L34.744 11.2059C34.8599 10.9996 34.7908 10.7349 34.5896 10.6141H34.5855Z" fill="#0B0B0B"/>
</svg>
