<svg width="40" height="40" viewBox="0 0 40 40" fill="none" xmlns="http://www.w3.org/2000/svg">
<path d="M29.0448 35.102H10.9552C10.4277 35.102 10 35.5293 10 36.0564V39.0456C10 39.5727 10.4277 40 10.9552 40H29.0448C29.5723 40 30 39.5727 30 39.0456V36.0564C30 35.5293 29.5723 35.102 29.0448 35.102Z" fill="#0B0B0B"/>
<path d="M27.0483 29.7959H12.5517C12.0255 29.7959 11.6 30.2224 11.6 30.7498V34.6939H28V30.7498C28 30.2224 27.5745 29.7959 27.0483 29.7959Z" fill="#0B0B0B"/>
<path d="M25.054 5.30846H14.1483C13.624 5.30846 13.2 5.74316 13.2 6.2807V29.3878H13.8428V6.5518C13.8428 6.16852 14.146 5.85768 14.5199 5.85768H22.8906C23.1209 5.85768 23.3237 5.97454 23.4446 6.1545C23.4218 6.15216 23.399 6.14982 23.3739 6.14982H15.0032C14.6293 6.14982 14.3261 6.46066 14.3261 6.84394V29.3831H26V6.27836C26 5.74083 25.576 5.30612 25.0517 5.30612L25.054 5.30846ZM22.0928 19.8523C22.0928 20.675 21.4408 21.3434 20.6384 21.3434H18.5639C17.7615 21.3434 17.1095 20.675 17.1095 19.8523V14.8439C17.1095 14.0212 17.7615 13.3528 18.5639 13.3528H20.6384C21.4408 13.3528 22.0928 14.0212 22.0928 14.8439V19.8523Z" fill="#0B0B0B"/>
<path d="M23.0625 0H16.1375C15.6192 0 15.2 0.426508 15.2 0.95391V4.89796H24V0.95391C24 0.426508 23.5808 0 23.0625 0Z" fill="#0B0B0B"/>
</svg>
