<svg width="40" height="40" viewBox="0 0 40 40" fill="none" xmlns="http://www.w3.org/2000/svg">
<path d="M27.9818 11.7766H12.0183C11.7871 11.7766 11.6001 11.9072 11.6001 12.0688V12.9058C11.6001 13.0674 11.7871 13.198 12.0183 13.198H27.9818C28.2131 13.198 28.4001 13.0674 28.4001 12.9058V12.0688C28.4001 11.9072 28.2131 11.7766 27.9818 11.7766Z" fill="#0B0B0B"/>
<path d="M27.927 3.82679C24.1301 3.25338 21.2473 1.83206 20.6212 0.0996328C20.601 0.0406653 20.4903 0 20.3615 0H19.6387C19.5099 0 19.4012 0.0426986 19.379 0.0996328C18.7529 1.83206 15.866 3.25338 12.0732 3.82679H22.1089C22.1834 3.82679 22.2438 3.88779 22.2438 3.96302V4.01385C22.2438 4.08909 22.1834 4.1501 22.1089 4.1501L11.6001 4.3392V11.092C11.6001 11.2465 11.8115 11.3706 12.0732 11.3706H27.927C28.1887 11.3706 28.4001 11.2445 28.4001 11.092V4.10739C28.4001 3.95286 28.1887 3.82882 27.927 3.82882V3.82679Z" fill="#0B0B0B"/>
<path d="M27.649 13.8071H12.3512C11.9364 13.8071 11.6001 14.1444 11.6001 14.5605V39.2466C11.6001 39.6627 11.9364 40 12.3512 40H27.649C28.0638 40 28.4001 39.6627 28.4001 39.2466V14.5605C28.4001 14.1444 28.0638 13.8071 27.649 13.8071ZM12.1559 38.9255V19.1636H23.9519V39.4425H12.6714C12.3874 39.4425 12.1559 39.2103 12.1559 38.9255ZM27.8443 38.9255C27.8443 39.2103 27.6127 39.4425 27.3288 39.4425H27.1113V19.1636H27.8443V38.9255Z" fill="#0B0B0B"/>
</svg>
