<svg width="40" height="40" viewBox="0 0 40 40" fill="none" xmlns="http://www.w3.org/2000/svg">
<path d="M30.3376 7.21312H9.66222C8.96521 7.21312 8.3999 7.78182 8.3999 8.48301V38.7301C8.3999 39.4313 8.96521 40 9.66222 40H30.3376C31.0346 40 31.5999 39.4313 31.5999 38.7301V8.48505C31.5999 7.78385 31.0346 7.21515 30.3376 7.21515V7.21312ZM10.9529 39.4435H9.71288C9.29345 39.4435 8.95508 39.1011 8.95508 38.6812V8.53397C8.95508 8.11203 9.29548 7.77162 9.71288 7.77162H11.0015C10.7523 7.89596 10.5801 8.15483 10.5801 8.45447V38.7872C10.5801 39.0664 10.73 39.311 10.9529 39.4435Z" fill="#0B0B0B"/>
<path d="M21.2321 0C20.5517 0 19.9999 0.572258 19.9999 1.27784V6.55738H20.4805V1.38655C20.4805 0.859412 20.8919 0.432783 21.4002 0.432783H22.1004C21.7641 0.504571 21.511 0.814288 21.511 1.18349V6.55738H27.7332V1.27784C27.7332 0.572258 27.1814 0 26.5011 0H21.2321Z" fill="#0B0B0B"/>
</svg>
