<svg width="130" height="130" viewBox="0 0 130 130" fill="none" xmlns="http://www.w3.org/2000/svg">
<path d="M18.9804 112H58.8195C59.2597 112 59.682 111.825 59.9933 111.514C60.3046 111.202 60.4795 110.78 60.4795 110.34C60.4795 109.899 60.3046 109.477 59.9933 109.165C59.682 108.854 59.2597 108.679 58.8195 108.679H18.9804C18.7624 108.679 18.5465 108.636 18.3451 108.553C18.1436 108.47 17.9606 108.347 17.8064 108.193C17.6522 108.039 17.5299 107.856 17.4464 107.655C17.3629 107.453 17.3199 107.237 17.3199 107.019V28.9815C17.3198 28.7634 17.3627 28.5474 17.4462 28.3459C17.5296 28.1443 17.6519 27.9612 17.8061 27.807C17.9603 27.6527 18.1434 27.5304 18.3449 27.447C18.5463 27.3635 18.7623 27.3206 18.9804 27.3206C21.7303 27.3206 23.9598 29.5507 23.9598 32.3022V37.2829C23.9598 39.1168 25.446 40.6035 27.2798 40.6035H83.7194V62.1886C83.717 62.4082 83.7582 62.626 83.8406 62.8296C83.9229 63.0331 84.0448 63.2183 84.1992 63.3744C84.3536 63.5305 84.5374 63.6544 84.74 63.739C84.9426 63.8235 85.1599 63.8671 85.3794 63.8671C85.5989 63.8671 85.8163 63.8235 86.0189 63.739C86.2215 63.6544 86.4053 63.5305 86.5596 63.3744C86.714 63.2183 86.8359 63.0331 86.9183 62.8296C87.0006 62.626 87.0418 62.4082 87.0394 62.1886V40.6035H93.6801C95.5136 40.6035 97 39.117 97 37.2829V32.3022C96.994 27.7189 93.2812 24.0054 88.6998 24H18.9804C16.2293 24 14 26.2298 14 28.9815V107.019C14 109.77 16.2293 112 18.9804 112ZM88.6998 27.3206C91.4498 27.3206 93.6801 29.5507 93.6801 32.3022V37.2829H27.2798V32.3022C27.274 30.4997 26.6756 28.7493 25.5769 27.3206H88.6998Z" fill="#00A689"/>
<path d="M39.2679 105.826C49.3567 105.826 57.5358 97.6897 57.5358 87.6522C57.5358 77.6153 49.3567 69.4781 39.2679 69.4781C29.1791 69.4781 21 77.6153 21 87.6522C21.0121 97.6845 29.1836 105.814 39.2679 105.826ZM39.2679 72.7825C47.5223 72.7825 54.2143 79.4403 54.2143 87.652C54.2143 95.8649 47.5223 102.522 39.2679 102.522C31.0135 102.522 24.3215 95.8649 24.3215 87.6522C24.3312 79.444 31.0172 72.7932 39.2679 72.7825ZM107.357 67.8264H70.8214C67.1523 67.8264 64.1786 70.785 64.1786 74.435V117.391C64.1786 121.042 67.1525 124 70.8214 124H107.357C111.026 124 114 121.041 114 117.391V74.435C114 70.785 111.026 67.8264 107.357 67.8264ZM70.8214 71.1308H107.357C109.192 71.1308 110.679 72.61 110.679 74.435H67.4999C67.4999 72.61 68.987 71.1308 70.8214 71.1308ZM67.4999 87.6522V77.7392H78.793L70.0741 87.6522H67.4999ZM83.2006 77.7392H87.4283L84.439 81.7044C84.264 81.9365 84.1535 82.2103 84.1187 82.4983C84.0838 82.7863 84.1258 83.0783 84.2405 83.3451C84.3552 83.6118 84.5384 83.8438 84.7717 84.0178C85.005 84.1918 85.2802 84.3017 85.5697 84.3364C85.8591 84.3709 86.1526 84.329 86.4207 84.215C86.6887 84.101 86.9219 83.9188 87.0968 83.6868L91.5806 77.7392H110.679V87.6522H74.4749L83.2006 77.7392ZM107.357 120.696H70.8214C68.987 120.696 67.4999 119.216 67.4999 117.391V90.9564H110.679V117.391C110.679 119.216 109.192 120.696 107.357 120.696ZM77.4642 48H25.9823C25.5462 48.0066 25.1302 48.1837 24.8241 48.4928C24.5181 48.802 24.3465 49.2186 24.3465 49.6525C24.3465 50.0864 24.5181 50.503 24.8241 50.8121C25.1302 51.1213 25.5462 51.2983 25.9823 51.305H77.4642C77.9003 51.2983 78.3163 51.1213 78.6224 50.8121C78.9284 50.503 79.1 50.0864 79.1 49.6525C79.1 49.2186 78.9284 48.802 78.6224 48.4928C78.3163 48.1837 77.9003 48.0066 77.4642 48ZM25.9823 57.9136H35.9466C36.8632 57.9136 37.6067 57.174 37.6067 56.2611C37.6067 55.349 36.8632 54.6094 35.9466 54.6094H25.9823C25.5419 54.6094 25.1195 54.7834 24.8081 55.0933C24.4966 55.4031 24.3217 55.8233 24.3217 56.2615C24.3217 56.6996 24.4966 57.1199 24.8081 57.4297C25.1195 57.7395 25.5419 57.9136 25.9823 57.9136ZM77.4642 54.6094H45.9107C45.4704 54.6094 45.0482 54.7834 44.7368 55.0931C44.4255 55.4028 44.2505 55.8229 44.2504 56.2609C44.2504 56.4779 44.2932 56.6927 44.3766 56.8932C44.46 57.0936 44.5823 57.2758 44.7364 57.4293C44.8906 57.5827 45.0736 57.7045 45.275 57.7876C45.4765 57.8707 45.6924 57.9135 45.9105 57.9136H77.4642C77.6844 57.9169 77.9031 57.8767 78.1075 57.7952C78.312 57.7136 78.4981 57.5925 78.655 57.4387C78.8119 57.285 78.9365 57.1017 79.0216 56.8996C79.1066 56.6975 79.1504 56.4806 79.1504 56.2615C79.1504 56.0424 79.1066 55.8254 79.0216 55.6233C78.9365 55.4212 78.8119 55.238 78.655 55.0842C78.4981 54.9305 78.312 54.8093 78.1075 54.7278C77.9031 54.6463 77.6844 54.606 77.4642 54.6094ZM25.9823 64.522H54.2145C55.1312 64.522 55.8748 63.7824 55.8748 62.8697C55.8748 61.9576 55.1314 61.2178 54.2145 61.2178H25.9823C25.5419 61.2178 25.1195 61.3919 24.808 61.7017C24.4966 62.0116 24.3216 62.4318 24.3216 62.87C24.3216 63.3082 24.4966 63.7284 24.808 64.0383C25.1195 64.3481 25.5419 64.522 25.9823 64.522ZM77.4642 61.2178H64.1786C63.262 61.2178 62.5176 61.9574 62.5176 62.8697C62.5177 63.3079 62.6927 63.7282 63.0042 64.038C63.3157 64.3478 63.7381 64.5219 64.1786 64.522H77.4642C77.6838 64.5244 77.9017 64.4834 78.1053 64.4014C78.3088 64.3194 78.494 64.1981 78.6502 64.0445C78.8063 63.8908 78.9303 63.7079 79.0149 63.5062C79.0994 63.3046 79.143 63.0883 79.143 62.8698C79.143 62.6513 79.0994 62.435 79.0149 62.2334C78.9303 62.0317 78.8063 61.8488 78.6502 61.6951C78.494 61.5415 78.3088 61.4202 78.1053 61.3382C77.9017 61.2562 77.6838 61.2154 77.4642 61.2178Z" fill="#00A689"/>
<path d="M77.3998 94.0393H74.1109C72.2944 94.0393 70.8221 95.5078 70.8221 97.3194V100.6C70.8221 102.412 72.2944 103.88 74.1109 103.88H77.3998C79.2161 103.88 80.6886 102.412 80.6886 100.6V97.3194C80.6886 95.5078 79.2163 94.0393 77.3998 94.0393ZM74.1109 100.6V97.3194H77.3998V100.6H74.1109ZM77.3998 107.16H74.1109C72.2944 107.16 70.8221 108.628 70.8221 110.44V113.72C70.8221 115.532 72.2944 117 74.1109 117H77.3998C79.2161 117 80.6886 115.532 80.6886 113.72V110.44C80.6886 108.629 79.2163 107.16 77.3998 107.16ZM74.1109 113.72V110.44H77.3998V113.72H74.1109ZM90.5558 94.0393H87.2663C85.4498 94.0393 83.9773 95.5078 83.9773 97.3194V100.6C83.9773 102.412 85.4498 103.88 87.2663 103.88H90.5558C92.3723 103.88 93.8448 102.412 93.8448 100.6V97.3194C93.8448 95.5078 92.3723 94.0393 90.5558 94.0393ZM87.2663 100.6V97.3194H90.5558V100.6H87.2663ZM103.711 94.0393H100.422C98.606 94.0393 97.1335 95.5078 97.1335 97.3194V113.72C97.1335 115.531 98.6058 117 100.422 117H103.711C105.528 117 107 115.531 107 113.72V97.3192C107 95.5076 105.528 94.0391 103.711 94.0391L103.711 94.0393ZM100.422 113.72V97.3194H103.711V113.72L100.422 113.72ZM90.5558 107.16H87.2663C85.4498 107.16 83.9773 108.628 83.9773 110.44V113.72C83.9773 115.532 85.4498 117 87.2663 117H90.5558C92.3723 117 93.8448 115.532 93.8448 113.72V110.44C93.8448 108.629 92.3723 107.16 90.5558 107.16ZM87.2663 113.72V110.44H90.5558V113.72H87.2663ZM41.2225 92.3997H34.644C34.208 92.3998 33.79 92.5726 33.4817 92.8801C33.1734 93.1875 33.0002 93.6045 33.0002 94.0393C33.0001 94.2547 33.0426 94.4679 33.1251 94.6669C33.2077 94.8659 33.3288 95.0468 33.4814 95.1991C33.6341 95.3514 33.8153 95.4723 34.0148 95.5548C34.2142 95.6373 34.4281 95.6798 34.644 95.6798H37.9329V97.3192C37.9396 97.7499 38.1158 98.1607 38.4235 98.463C38.7312 98.7652 39.1458 98.9346 39.5777 98.9346C40.0096 98.9346 40.4242 98.7652 40.7319 98.463C41.0397 98.1607 41.2159 97.7499 41.2225 97.3192V95.6798C43.9468 95.6798 46.1554 93.4771 46.1554 90.7594C46.1554 88.0424 43.9468 85.8397 41.2225 85.8397H37.9329C37.717 85.8397 37.5032 85.7972 37.3037 85.7147C37.1042 85.6323 36.923 85.5114 36.7703 85.3591C36.6177 85.2068 36.4966 85.026 36.414 84.827C36.3314 84.628 36.2889 84.4147 36.289 84.1994C36.289 83.2942 37.0251 82.5598 37.9328 82.5598H44.5114C45.4191 82.5598 46.1552 81.8256 46.1552 80.9195C46.1552 80.0141 45.4191 79.2799 44.5114 79.2799H41.2225V77.6394C41.2225 76.7342 40.4856 76 39.5777 76C38.6699 76 37.9329 76.7342 37.9329 77.6394V79.2799C35.2086 79.2799 33 81.4824 33 84.1994C33 86.9169 35.2086 89.1198 37.9329 89.1198H41.2225C42.1303 89.1198 42.8665 89.854 42.8665 90.7594C42.8666 91.1943 42.6935 91.6114 42.3852 91.9191C42.0769 92.2267 41.6586 92.3996 41.2225 92.3997Z" fill="#00A689"/>
</svg>
