<svg width="130" height="130" viewBox="0 0 130 130" fill="none" xmlns="http://www.w3.org/2000/svg">
<path d="M112.634 40.0128H90.3627L91.0002 37.7504C91.4482 36.1694 91.2537 34.4745 90.4593 33.0373C89.665 31.6002 88.3356 30.538 86.7627 30.0838L31.6522 14.2384C30.0781 13.7871 28.39 13.9816 26.9584 14.7791C25.5269 15.5766 24.4689 16.912 24.0167 18.4921L20.3126 31.4988L19.3074 35.0269L14.2348 52.821C13.7885 54.4016 13.9835 56.0955 14.7771 57.5321C15.5708 58.9688 16.8986 60.0314 18.4701 60.4876L34.1025 64.9825V81.7798C34.1036 82.6761 34.4586 83.5354 35.0896 84.1692C35.7207 84.8029 36.5762 85.1595 37.4686 85.1606H54.8393C54.5401 88.3122 53.3616 91.315 51.4391 93.824C44.1819 102.385 47.4014 114.363 47.5523 114.869C47.6432 115.194 47.8379 115.481 48.1065 115.686C48.3751 115.89 48.7029 116 49.0399 116C49.1835 116.002 49.3266 115.983 49.4649 115.944C49.6605 115.889 49.8433 115.795 50.0028 115.668C50.1622 115.541 50.2951 115.384 50.3938 115.206C50.4926 115.027 50.5552 114.831 50.5781 114.628C50.6011 114.425 50.5838 114.22 50.5274 114.023C50.4977 113.915 47.5905 103.138 53.7959 95.8238C59.5655 89.011 58.4074 77.3873 57.6402 69.693C57.5169 68.4508 57.4022 67.3068 57.3299 66.2994C57.2865 65.6357 57.3814 64.9701 57.6087 64.3454C57.8359 63.7206 58.1904 63.1503 58.6496 62.671C59.1937 62.0861 59.8518 61.6199 60.583 61.3016C61.3142 60.9832 62.1029 60.8195 62.8998 60.8205C63.7033 60.8256 64.4973 60.9949 65.2335 61.3182C65.9697 61.6415 66.6326 62.1119 67.1819 62.7009C67.6316 63.1741 67.9774 63.7368 68.1971 64.3526C68.4167 64.9684 68.5052 65.6236 68.457 66.2759C66.2341 93.4035 73.944 97.9945 74.8323 98.4299C75.1981 98.593 75.6125 98.6073 75.9885 98.4696C76.3645 98.332 76.6726 98.0532 76.8481 97.692C77.0235 97.3308 77.0525 96.9153 76.929 96.533C76.8055 96.1507 76.5392 95.8314 76.186 95.6424C76.1414 95.6211 73.2109 93.6703 71.8466 85.1414H91.6292C92.5792 94.349 87.9337 104.876 82.6081 113.543C82.5017 113.716 82.4302 113.909 82.3979 114.11C82.3655 114.311 82.3728 114.516 82.4195 114.714C82.4662 114.912 82.5512 115.099 82.6698 115.264C82.7884 115.43 82.9382 115.57 83.1107 115.676C83.2832 115.783 83.4749 115.855 83.675 115.888C83.8751 115.92 84.0796 115.913 84.2768 115.866C84.4741 115.819 84.6602 115.734 84.8245 115.614C84.9889 115.495 85.1283 115.345 85.2348 115.172C92.3093 103.659 95.4353 93.5017 94.683 85.1414H112.642C113.53 85.1381 114.38 84.7832 115.009 84.1538C115.638 83.5244 115.994 82.6713 116 81.7798V43.3914C115.999 42.4953 115.644 41.6363 115.013 41.0028C114.382 40.3694 113.526 40.0133 112.634 40.0128ZM112.914 43.3914V50.772C111.037 50.4123 109.314 49.4861 107.974 48.1171C106.634 46.748 105.742 45.0012 105.417 43.1097H112.642C112.715 43.1125 112.784 43.1433 112.835 43.1958C112.885 43.2482 112.914 43.3183 112.914 43.3914ZM26.9855 19.3437C27.2119 18.5519 27.7417 17.8825 28.4588 17.4824C29.1758 17.0823 30.0216 16.9841 30.8107 17.2094L85.9212 33.0612C86.3119 33.1733 86.6768 33.3616 86.995 33.6153C87.3133 33.8691 87.5786 34.1833 87.776 34.5401C87.9733 34.8968 88.0987 35.2891 88.1451 35.6945C88.1915 36.1 88.1579 36.5106 88.0463 36.903L87.0262 40.4866L25.9654 22.9252L26.9855 19.3437ZM23.7022 30.8585L25.1154 25.9005L86.1698 43.4512L83.7514 51.9374L22.7076 34.3888L23.7022 30.8585ZM37.1881 81.7713V74.3587C39.1044 74.6829 40.8726 75.5987 42.2467 76.9788C43.6209 78.3589 44.5327 80.1348 44.8555 82.0594H37.4686C37.4319 82.0597 37.3955 82.0527 37.3614 82.0388C37.3274 82.0248 37.2965 82.0043 37.2704 81.9783C37.2443 81.9523 37.2236 81.9214 37.2095 81.8873C37.1954 81.8533 37.1881 81.8167 37.1881 81.7798V81.7713ZM55.1304 82.0509H47.9964C47.6488 79.2968 46.3993 76.737 44.4446 74.7742C42.4899 72.8114 39.9409 71.557 37.1987 71.2084V65.8619L54.6587 70.884C55.088 74.5925 55.2457 78.3277 55.1304 82.0594V82.0509ZM62.8892 57.7513C61.6691 57.7515 60.4621 58.0036 59.3431 58.4919C58.2241 58.9803 57.217 59.6944 56.3843 60.59C55.6355 61.3789 55.0587 62.3159 54.6906 63.3412C54.3226 64.3665 54.1713 65.4576 54.2464 66.5448C54.2698 66.8693 54.3038 67.23 54.3335 67.58L19.3202 57.5059C18.5314 57.279 17.8646 56.7469 17.4662 56.0266C17.0677 55.3063 16.9702 54.4565 17.1951 53.6641L21.8576 37.3747L82.9141 54.9233L78.258 71.2255C78.1466 71.618 77.9593 71.9847 77.7067 72.3045C77.4541 72.6242 77.1413 72.8909 76.786 73.0891C76.4307 73.2873 76.04 73.4133 75.6362 73.4597C75.2325 73.5062 74.8235 73.4722 74.4328 73.3598L71.1878 72.4292C71.243 70.6086 71.3472 68.6643 71.5193 66.5598C71.6034 65.4792 71.4612 64.393 71.1017 63.371C70.7423 62.349 70.1736 61.414 69.4324 60.6263C68.5976 59.7205 67.5855 58.9976 66.4596 58.5029C65.3337 58.0081 64.1182 57.7523 62.8892 57.7513ZM71.4449 82.068C71.2485 79.9307 71.1492 77.7856 71.1474 75.6393L73.5913 76.3415C75.1652 76.7933 76.8532 76.599 78.2846 75.8014C79.7159 75.0038 80.7734 73.6681 81.2247 72.0877L86.2952 54.2937L87.0475 51.6492L89.4786 43.1118H102.287C102.64 45.8319 103.87 48.3612 105.789 50.3138C107.707 52.2664 110.209 53.5352 112.912 53.9266V71.2511C110.209 71.6416 107.708 72.9095 105.789 74.8614C103.871 76.8133 102.641 79.342 102.287 82.0616L71.4449 82.068ZM112.634 82.068H105.408C105.733 80.174 106.626 78.4248 107.967 77.0543C109.308 75.6838 111.034 74.7575 112.914 74.3992V81.7798C112.914 81.8167 112.907 81.8533 112.893 81.8873C112.879 81.9214 112.858 81.9523 112.832 81.9783C112.806 82.0043 112.775 82.0248 112.741 82.0388C112.707 82.0527 112.671 82.0597 112.634 82.0594V82.068Z" fill="#00A689"/>
<path d="M43.9658 52.1749L23.116 46.0654C22.6927 45.9416 22.2387 45.995 21.8538 46.2139C21.469 46.4328 21.1848 46.7993 21.0639 47.2327C20.9429 47.6661 20.9951 48.1309 21.2089 48.525C21.4227 48.919 21.7806 49.2099 22.204 49.3338L43.0538 55.4386C43.4771 55.5624 43.9311 55.509 44.316 55.2901C44.7008 55.0712 44.985 54.7047 45.1059 54.2713C45.2269 53.8379 45.1747 53.3731 44.9609 52.979C44.7471 52.585 44.3892 52.2941 43.9658 52.1702V52.1749ZM99.3738 55.4363C98.0634 55.4367 96.7825 55.8352 95.6932 56.5812C94.604 57.3272 93.7554 58.3872 93.2547 59.6271C92.754 60.8671 92.6239 62.2312 92.8806 63.5469C93.1374 64.8627 93.7696 66.0708 94.6972 67.0186C95.6248 67.9663 96.8061 68.6111 98.0917 68.8713C99.3773 69.1314 100.709 68.9953 101.919 68.4802C103.129 67.965 104.163 67.094 104.889 65.9772C105.616 64.8604 106.002 63.5482 106 62.2065C105.995 60.4102 105.294 58.6893 104.052 57.4204C102.811 56.1515 101.128 55.4381 99.3738 55.4363ZM99.3738 65.6079C98.7192 65.6074 98.0794 65.4083 97.5353 65.0357C96.9912 64.663 96.5672 64.1336 96.3169 63.5143C96.0666 62.895 96.0012 62.2136 96.129 61.5563C96.2569 60.8989 96.5721 60.2951 97.035 59.8212C97.4979 59.3473 98.0876 59.0245 98.7296 58.8936C99.3717 58.7627 100.037 58.8297 100.642 59.086C101.247 59.3422 101.764 59.7763 102.128 60.3334C102.492 60.8905 102.686 61.5456 102.687 62.2158C102.686 63.1153 102.337 63.9777 101.716 64.6137C101.095 65.2497 100.252 65.6073 99.3738 65.6079Z" fill="#00A689"/>
</svg>
