<svg width="130" height="130" viewBox="0 0 130 130" fill="none" xmlns="http://www.w3.org/2000/svg">
<path d="M73.5 108C74.3284 108 75 107.105 75 106C75 104.895 74.3284 104 73.5 104C72.6716 104 72 104.895 72 106C72 107.105 72.6716 108 73.5 108Z" fill="#00A689"/>
<path fill-rule="evenodd" clip-rule="evenodd" d="M117.138 26H12.8621C12.3682 26 11.8946 26.1982 11.5454 26.5509C11.1962 26.9037 11 27.3821 11 27.881V57.9762C11.0095 58.472 11.2088 58.9449 11.5559 59.2956C11.9031 59.6462 12.3712 59.8475 12.8621 59.8571C14.3436 59.8571 15.7645 60.4517 16.8121 61.5099C17.8597 62.5681 18.4483 64.0034 18.4483 65.5C18.4483 66.9966 17.8597 68.4319 16.8121 69.4901C15.7645 70.5483 14.3436 71.1429 12.8621 71.1429C12.3682 71.1429 11.8946 71.341 11.5454 71.6938C11.1962 72.0465 11 72.5249 11 73.0238V103.119C11.0095 103.615 11.2088 104.088 11.5559 104.438C11.9031 104.789 12.3712 104.99 12.8621 105H64.9998C65.4937 105 65.9673 104.802 66.3165 104.449C66.6657 104.096 66.8619 103.618 66.8619 103.119C66.8619 102.62 66.6657 102.142 66.3165 101.789C65.9673 101.436 65.4937 101.238 64.9998 101.238H14.7986V74.9048C16.9033 74.4731 18.7955 73.3196 20.1546 71.6399C21.5137 69.9602 22.2562 67.8575 22.2562 65.6881C22.2562 63.5187 21.5137 61.416 20.1546 59.7363C18.7955 58.0566 16.9033 56.9031 14.7986 56.4714V30.1381H115.35V56.4714C113.245 56.9031 111.353 58.0566 109.994 59.7363C108.635 61.416 107.892 63.5187 107.892 65.6881C107.892 67.8575 108.635 69.9602 109.994 71.6399C111.353 73.3196 113.245 74.4731 115.35 74.9048V101.238H79.8963C79.4025 101.238 78.9288 101.436 78.5796 101.789C78.2304 102.142 78.0343 102.62 78.0343 103.119C78.0438 103.615 78.243 104.088 78.5902 104.438C78.9373 104.789 79.4054 104.99 79.8963 105H117.138C117.631 105 118.105 104.802 118.454 104.449C118.803 104.096 119 103.618 119 103.119V73.0614C119 72.5626 118.803 72.0841 118.454 71.7314C118.105 71.3786 117.631 71.1805 117.138 71.1805C115.656 71.1805 114.235 70.586 113.188 69.5277C112.14 68.4695 111.551 67.0342 111.551 65.5376C111.551 64.041 112.14 62.6058 113.188 61.5475C114.235 60.4893 115.656 59.8948 117.138 59.8948C117.631 59.8948 118.105 59.6966 118.454 59.3438C118.803 58.9911 119 58.5127 119 58.0138V27.9186C119.005 27.6684 118.96 27.4198 118.869 27.1872C118.777 26.9546 118.641 26.7428 118.468 26.5642C118.294 26.3855 118.087 26.2436 117.859 26.1467C117.63 26.0498 117.385 25.9999 117.138 26Z" fill="#00A689"/>
<path fill-rule="evenodd" clip-rule="evenodd" d="M34.8824 89.4662C34.3831 89.4662 33.9043 89.6646 33.5513 90.0178C33.1983 90.371 33 90.8501 33 91.3496V95.1165C33.0096 95.613 33.2111 96.0865 33.562 96.4377C33.9129 96.7888 34.3861 96.9904 34.8824 97C35.3816 97 35.8604 96.8016 36.2134 96.4483C36.5664 96.0951 36.7647 95.6161 36.7647 95.1165V91.3873C36.7697 91.1368 36.7247 90.8878 36.6324 90.6549C36.54 90.4221 36.4022 90.21 36.2269 90.0311C36.0516 89.8522 35.8424 89.71 35.6115 89.613C35.3806 89.516 35.1327 89.4661 34.8824 89.4662ZM36.84 68.7858C36.84 68.2862 36.6417 67.8072 36.2887 67.4539C35.9357 67.1007 35.4569 66.9023 34.9576 66.9023C34.4584 66.9023 33.9796 67.1007 33.6266 67.4539C33.2736 67.8072 33.0753 68.2862 33.0753 68.7858V72.5527C33.0849 73.0492 33.2863 73.5227 33.6373 73.8738C33.9882 74.225 34.4614 74.4265 34.9576 74.4361C35.4569 74.4361 35.9357 74.2377 36.2887 73.8845C36.6417 73.5313 36.84 73.0522 36.84 72.5527V68.7858ZM36.84 46.1842C36.84 45.6847 36.6417 45.2056 36.2887 44.8524C35.9357 44.4992 35.4569 44.3008 34.9576 44.3008C34.4584 44.3008 33.9796 44.4992 33.6266 44.8524C33.2736 45.2056 33.0753 45.6847 33.0753 46.1842V49.9511C33.0849 50.4477 33.2863 50.9211 33.6373 51.2723C33.9882 51.6234 34.4614 51.825 34.9576 51.8346C35.4569 51.8346 35.9357 51.6362 36.2887 51.283C36.6417 50.9297 36.84 50.4507 36.84 49.9511V46.1842ZM36.84 80.0865C36.84 79.587 36.6417 79.1079 36.2887 78.7547C35.9357 78.4015 35.4569 78.2031 34.9576 78.2031C34.4584 78.2031 33.9796 78.4015 33.6266 78.7547C33.2736 79.1079 33.0753 79.587 33.0753 80.0865V83.8534C33.0849 84.3499 33.2863 84.8234 33.6373 85.1746C33.9882 85.5257 34.4614 85.7273 34.9576 85.7369C35.4569 85.7369 35.9357 85.5385 36.2887 85.1853C36.6417 84.832 36.84 84.353 36.84 83.8534V80.0865ZM36.84 57.485C36.84 56.9855 36.6417 56.5064 36.2887 56.1532C35.9357 55.8 35.4569 55.6015 34.9576 55.6015C34.4584 55.6015 33.9796 55.8 33.6266 56.1532C33.2736 56.5064 33.0753 56.9855 33.0753 57.485V61.2519C33.0849 61.7484 33.2863 62.2219 33.6373 62.573C33.9882 62.9242 34.4614 63.1257 34.9576 63.1354C35.4569 63.1354 35.9357 62.9369 36.2887 62.5837C36.6417 62.2305 36.84 61.7514 36.84 61.2519V57.485ZM36.84 34.8835C36.84 34.3839 36.6417 33.9049 36.2887 33.5517C35.9357 33.1984 35.4569 33 34.9576 33C34.4584 33 33.9796 33.1984 33.6266 33.5517C33.2736 33.9049 33.0753 34.3839 33.0753 34.8835V38.6504C33.0849 39.1469 33.2863 39.6204 33.6373 39.9715C33.9882 40.3227 34.4614 40.5242 34.9576 40.5338C35.4569 40.5338 35.9357 40.3354 36.2887 39.9822C36.6417 39.629 36.84 39.1499 36.84 38.6504V34.8835ZM53.7059 89.4662H91.3529C91.8522 89.4662 92.331 89.2677 92.684 88.9145C93.037 88.5613 93.2353 88.0822 93.2353 87.5827V66.8646H95.1176C95.6169 66.8646 96.0957 66.6662 96.4487 66.313C96.8017 65.9598 97 65.4807 97 64.9812V53.7181C97 53.2185 96.8017 52.7395 96.4487 52.3863C96.0957 52.033 95.6169 51.8346 95.1176 51.8346H92.2188C92.8697 50.6848 93.2194 49.389 93.2353 48.0677C93.241 47.0762 93.0511 46.0933 92.6764 45.1754C92.3017 44.2575 91.7496 43.4226 91.0518 42.7187C90.3482 42.0204 89.5138 41.468 88.5965 41.0931C87.6791 40.7182 86.6968 40.5281 85.7059 40.5338H83.8235C81.5399 40.5352 79.2963 41.1339 77.3152 42.2704C75.3341 43.4069 73.6843 45.0418 72.5294 47.0129C71.3745 45.0418 69.7247 43.4069 67.7436 42.2704C65.7625 41.1339 63.5189 40.5352 61.2353 40.5338H59.3529C57.3646 40.5323 55.4564 41.3177 54.0447 42.7187C52.8723 43.8964 52.1222 45.4291 51.9111 47.078C51.7 48.7268 52.0398 50.3992 52.8776 51.8346H49.9412C49.4419 51.8346 48.9632 52.033 48.6102 52.3863C48.2571 52.7395 48.0588 53.2185 48.0588 53.7181V65.0188C48.0685 65.5153 48.2699 65.9888 48.6208 66.34C48.9718 66.6911 49.445 66.8927 49.9412 66.9023H51.8235V87.6204C51.8427 88.1103 52.0483 88.5743 52.3982 88.9175C52.7482 89.2606 53.216 89.4569 53.7059 89.4662ZM89.4706 85.6992H55.5882V66.8646H63.1176V76.3196C63.1186 76.639 63.2023 76.9527 63.3607 77.23C63.5191 77.5073 63.7466 77.7388 64.0212 77.9017C64.3028 78.0601 64.6205 78.1433 64.9435 78.1433C65.2666 78.1433 65.5842 78.0601 65.8659 77.9017L72.5294 74.6245L79.2306 77.9394C79.4833 78.0831 79.7682 78.1608 80.0588 78.1654C80.5521 78.1467 81.0201 77.9423 81.3692 77.5931C81.7182 77.2438 81.9225 76.7755 81.9412 76.2819V66.8646H89.4706V85.6992ZM72.5294 55.5639H78.1765V63.0977H66.8824V55.5639H72.5294ZM78.1765 66.8646V73.2307L73.3953 70.8199C73.1317 70.6902 72.8419 70.6228 72.5482 70.6228C72.2545 70.6228 71.9648 70.6902 71.7012 70.8199L66.8824 73.2307V66.8646H78.1765ZM93.2353 63.0977H81.9412V55.5639H93.2353V63.0977ZM83.8235 44.2631H85.7059C86.7043 44.2631 87.6619 44.66 88.3679 45.3664C89.074 46.0728 89.4706 47.031 89.4706 48.03C89.4664 49.0182 89.0743 49.9652 88.3788 50.6669C88.0302 51.0228 87.6144 51.306 87.1555 51.4999C86.6967 51.6939 86.204 51.7949 85.7059 51.7969H74.6753C75.1066 49.6824 76.2506 47.7803 77.9159 46.4089C79.5812 45.0375 81.6668 44.2799 83.8235 44.2631ZM56.7176 50.6669C56.0083 49.9714 55.6024 49.0236 55.5882 48.03C55.5854 47.5343 55.6803 47.0428 55.8677 46.5839C56.055 46.1249 56.3311 45.7075 56.68 45.3555C57.0318 45.0064 57.449 44.7302 57.9076 44.5427C58.3663 44.3553 58.8575 44.2602 59.3529 44.2631H61.2353C63.405 44.2627 65.5082 45.0123 67.189 46.3852C68.8698 47.7581 70.0249 49.6698 70.4588 51.7969H59.4282C58.4352 51.7828 57.488 51.3766 56.7929 50.6669H56.7176ZM51.8235 55.5639H63.1176V63.0977H51.8235V55.5639Z" fill="#00A689"/>
</svg>
