<svg width="40" height="40" viewBox="0 0 40 40" fill="none" xmlns="http://www.w3.org/2000/svg">
<path d="M12.1543 34.7066L3.33596 36.6666L5.29596 27.8483C4.00518 25.434 3.33183 22.7377 3.33596 20C3.33596 10.795 10.7976 3.33331 20.0026 3.33331C29.2076 3.33331 36.6693 10.795 36.6693 20C36.6693 29.205 29.2076 36.6666 20.0026 36.6666C17.2649 36.6708 14.5687 35.9974 12.1543 34.7066ZM11.6693 20C11.6693 22.2101 12.5473 24.3297 14.1101 25.8925C15.6729 27.4553 17.7925 28.3333 20.0026 28.3333C22.2128 28.3333 24.3324 27.4553 25.8952 25.8925C27.458 24.3297 28.336 22.2101 28.336 20H25.0026C25.0026 21.3261 24.4758 22.5978 23.5382 23.5355C22.6005 24.4732 21.3287 25 20.0026 25C18.6765 25 17.4048 24.4732 16.4671 23.5355C15.5294 22.5978 15.0026 21.3261 15.0026 20H11.6693Z" fill="white"/>
</svg>
