<svg width="40" height="40" viewBox="0 0 40 40" fill="none" xmlns="http://www.w3.org/2000/svg">
<g clip-path="url(#clip0_1173_4427)">
<path d="M30.8843 20.3275C31.0386 20.147 31.0386 19.8538 30.8843 19.6733L27.8419 16.1107L15.0155 1.09005C14.4194 0.392354 13.6113 -4.90558e-07 12.7691 -4.1693e-07L8.39566 -3.45893e-08C8.04399 -3.84593e-09 7.86775 0.498701 8.11627 0.789543L24.2416 19.6733C24.396 19.8538 24.396 20.147 24.2416 20.3275L8.11628 39.2105C7.86776 39.5021 8.044 40 8.39566 40L12.7691 40C13.6121 40 14.4202 39.6076 15.0164 38.9099L27.8427 23.8893L30.8851 20.3267L30.8843 20.3275Z" fill="#8A928F"/>
</g>
<defs>
<clipPath id="clip0_1173_4427">
<rect width="40" height="40" fill="white" transform="matrix(-1 8.74228e-08 8.74228e-08 1 40 0)"/>
</clipPath>
</defs>
</svg>
