<svg width="24" height="24" viewBox="0 0 24 24" fill="none" xmlns="http://www.w3.org/2000/svg">
<g clip-path="url(#clip0_1720_7572)">
<path d="M18.5313 12.1965C18.6239 12.0882 18.6239 11.9123 18.5313 11.804L16.7059 9.66642L9.01011 0.654031C8.65243 0.235412 8.16758 -2.94335e-07 7.66225 -2.50158e-07L5.03817 -2.07536e-08C4.82718 -2.30756e-09 4.72143 0.299221 4.87055 0.473726L14.5458 11.804C14.6384 11.9123 14.6384 12.0882 14.5458 12.1965L4.87055 23.5263C4.72144 23.7013 4.82718 24 5.03818 24L7.66225 24C8.16807 24 8.65292 23.7646 9.0106 23.346L16.7064 14.3336L18.5318 12.196L18.5313 12.1965Z" fill="#00A689"/>
</g>
<defs>
<clipPath id="clip0_1720_7572">
<rect width="24" height="24" fill="white" transform="matrix(-1 8.74228e-08 8.74228e-08 1 24 0)"/>
</clipPath>
</defs>
</svg>
