<svg width="40" height="40" viewBox="0 0 40 40" fill="none" xmlns="http://www.w3.org/2000/svg">
<path d="M32.1456 12.8852C31.332 11.6652 29.466 10.6664 28 10.6664H25.3332V5.3332H4V8H22.6668V29.3332H11.7564C11.2052 27.7824 9.7396 26.6668 8.0012 26.6668C5.7904 26.6668 4.0012 28.4572 4.0012 30.6668C4.0012 32.876 5.7904 34.6668 8.0012 34.6668C9.7396 34.6668 11.2048 33.5508 11.7564 32H24.2448C24.7968 33.5508 26.2616 34.6668 28 34.6668C29.7384 34.6668 31.2032 33.5508 31.7552 32H36V19.3332L32.1456 12.8852ZM8.0012 32C7.82608 32.0002 7.65264 31.9658 7.49082 31.8988C7.329 31.8319 7.18196 31.7337 7.05813 31.6099C6.9343 31.486 6.83611 31.339 6.76916 31.1772C6.70222 31.0154 6.66784 30.8419 6.668 30.6668C6.66789 30.4917 6.7023 30.3182 6.76926 30.1564C6.83622 29.9946 6.93441 29.8476 7.05823 29.7237C7.18204 29.5999 7.32905 29.5016 7.49085 29.4346C7.65265 29.3676 7.82607 29.3331 8.0012 29.3332C8.35479 29.3334 8.69383 29.474 8.94382 29.7241C9.19381 29.9741 9.33429 30.3132 9.3344 30.6668C9.33419 31.0203 9.19366 31.3593 8.94368 31.6093C8.6937 31.8593 8.35472 31.9998 8.0012 32ZM28 32C27.8249 32.0002 27.6514 31.9658 27.4896 31.8988C27.3278 31.8319 27.1808 31.7337 27.0569 31.6099C26.9331 31.486 26.8349 31.339 26.768 31.1772C26.701 31.0154 26.6666 30.8419 26.6668 30.6668C26.6668 29.9296 27.2628 29.3332 28 29.3332C28.7372 29.3332 29.3332 29.9296 29.3332 30.6668C29.3334 30.8419 29.299 31.0154 29.232 31.1772C29.1651 31.339 29.0669 31.486 28.9431 31.6099C28.8192 31.7337 28.6722 31.8319 28.5104 31.8988C28.3486 31.9658 28.1751 32.0002 28 32ZM33.3332 29.3332H31.7552C31.2032 27.7824 29.7384 26.6668 28 26.6668C26.9716 26.6668 26.0416 27.0664 25.3332 27.7044V22.6668H33.3332V29.3332ZM25.3332 20V13.3332H28C28.5792 13.3332 29.6056 13.8828 29.8568 14.254L33.3332 20H25.3332Z" fill="black"/>
<path d="M4 17H6.6668V19H4V17ZM17.3332 17H20V19H17.3332V17ZM11 23.3332H13V26H11V23.3332ZM11 10H13V12.6664H11V10Z" fill="black"/>
<path d="M7.05078 14.9356L8.46478 13.5216L11.9516 16.3752L17.4204 11.6352L18.8332 13.05L12 19.884L7.05078 14.9356Z" fill="black"/>
</svg>
