<svg width="40" height="40" viewBox="0 0 40 40" fill="none" xmlns="http://www.w3.org/2000/svg">
<path d="M8 27.5C8 28.4283 8.36122 29.3185 9.00421 29.9749C9.64719 30.6313 10.5193 31 11.4286 31C12.3379 31 13.21 30.6313 13.8529 29.9749C14.4959 29.3185 14.8571 28.4283 14.8571 27.5C14.8571 26.5717 14.4959 25.6815 13.8529 25.0251C13.21 24.3687 12.3379 24 11.4286 24C10.5193 24 9.64719 24.3687 9.00421 25.0251C8.36122 25.6815 8 26.5717 8 27.5ZM25.1429 27.5C25.1429 28.4283 25.5041 29.3185 26.1471 29.9749C26.79 30.6313 27.6621 31 28.5714 31C29.4807 31 30.3528 30.6313 30.9958 29.9749C31.6388 29.3185 32 28.4283 32 27.5C32 26.5717 31.6388 25.6815 30.9958 25.0251C30.3528 24.3687 29.4807 24 28.5714 24C27.6621 24 26.79 24.3687 26.1471 25.0251C25.5041 25.6815 25.1429 26.5717 25.1429 27.5Z" stroke="#0B0B0B" stroke-width="2" stroke-linecap="round" stroke-linejoin="round"/>
<path d="M8.05263 28H4.68421V21.3333M3 8H21.5263V28M14.7895 28H24.8947M31.6316 28H35V18M35 18H21.5263M35 18L29.9474 9.66667H21.5263M4.68421 14.6667H11.4211" stroke="#0B0B0B" stroke-width="2" stroke-linecap="round" stroke-linejoin="round"/>
</svg>
