<svg width="24" height="24" viewBox="0 0 24 24" fill="none" xmlns="http://www.w3.org/2000/svg">
<path d="M0.560547 13.9757L3.66057 23.4793C3.76187 23.7891 4.0529 24 4.38077 24H19.6267C19.9545 24 20.2456 23.7891 20.3469 23.4793L23.4469 13.9757H0.560547ZM11.7155 15.4206H13.8171L11.5331 20.562L10.5753 18.1233L11.7155 15.4206ZM8.42019 22.5533V16.6143L10.7429 22.5533H8.42019ZM15.5854 22.5533H14.3439L15.5854 19.8066V22.5533ZM12.362 22.5533H11.2715L8.42019 15.4206H9.05566L11.5092 21.6512L14.2997 15.4206H15.5872L12.3638 22.5533H12.362Z" fill="white"/>
<path d="M1.86942 12.3107L1.89705 12.3327C2.19545 12.5583 2.62094 12.4978 2.8475 12.2007L11.42 0.905711C11.4918 0.810363 11.4734 0.676508 11.3776 0.604997L10.6427 0.0530807C10.5303 -0.0312651 10.3701 -0.0092583 10.2853 0.102592L1.7368 11.3664C1.51024 11.6635 1.57102 12.087 1.86942 12.3126V12.3107Z" fill="white"/>
<path d="M22.0298 12.3089L22.0022 12.3309C21.7038 12.5564 21.2783 12.4959 21.0518 12.1989L12.4793 0.90388C12.4074 0.808532 12.4259 0.674677 12.5216 0.603166L13.2566 0.0512496C13.3689 -0.0330962 13.5292 -0.0110894 13.6139 0.10076L22.1625 11.3646C22.389 11.6616 22.3282 12.0852 22.0298 12.3107V12.3089Z" fill="white"/>
<path d="M23.2479 11.3939H22.6106C22.7635 11.8248 22.6327 12.3217 22.2477 12.6114C21.7707 12.9708 21.0928 12.8755 20.7318 12.4006L19.9674 11.3939H3.93313L3.16688 12.4024C2.80586 12.8773 2.12802 12.9708 1.65095 12.6132C1.26414 12.3235 1.1352 11.8248 1.28808 11.3939H0.757599C0.243693 11.3939 -0.121016 11.8927 0.0373928 12.3786L0.306317 13.2055H23.6937L23.9626 12.3786C24.121 11.8927 23.7563 11.3939 23.2442 11.3939H23.2479Z" fill="white"/>
</svg>
