<svg width="40" height="40" viewBox="0 0 40 40" fill="none" xmlns="http://www.w3.org/2000/svg">
<path d="M3 18.6154L7.70239 13.2728C8.33107 12.5581 9.10249 11.986 9.96584 11.5943C10.8292 11.2026 11.7649 11 12.7114 11H13.0514M3 33H12.2138L18.9148 27.9231C18.9148 27.9231 20.2717 26.9974 22.2652 25.3846C26.4533 22 22.2652 16.6422 18.0771 19.4615C14.6664 21.758 11.3762 23.6923 11.3762 23.6923" stroke="black" stroke-width="1.5" stroke-linecap="round" stroke-linejoin="round"/>
<path d="M13 22.45V11.4C13 10.4983 13.3612 9.63346 14.0042 8.99584C14.6472 8.35821 15.5193 8 16.4286 8H33.5714C34.4807 8 35.3528 8.35821 35.9958 8.99584C36.6388 9.63346 37 10.4983 37 11.4V21.6C37 22.5017 36.6388 23.3665 35.9958 24.0042C35.3528 24.6418 34.4807 25 33.5714 25H22.4286" stroke="black" stroke-width="1.5"/>
<path d="M32.9822 16.5175L33 16.4982M17 16.5175L17.0178 16.4982M24.9911 20C24.0492 20 23.1458 19.6313 22.4798 18.9749C21.8137 18.3185 21.4395 17.4283 21.4395 16.5C21.4395 15.5717 21.8137 14.6815 22.4798 14.0251C23.1458 13.3687 24.0492 13 24.9911 13C25.9331 13 26.8364 13.3687 27.5025 14.0251C28.1685 14.6815 28.5427 15.5717 28.5427 16.5C28.5427 17.4283 28.1685 18.3185 27.5025 18.9749C26.8364 19.6313 25.9331 20 24.9911 20Z" stroke="black" stroke-width="1.5" stroke-linecap="round" stroke-linejoin="round"/>
</svg>
