<svg width="29" height="29" viewBox="0 0 29 29" fill="none" xmlns="http://www.w3.org/2000/svg">
<path d="M12.4888 17.6414L19.8969 9.38484C20.1271 9.12828 20.42 9 20.7758 9C21.1315 9 21.4245 9.12828 21.6547 9.38484C21.8849 9.6414 22 9.96793 22 10.3644C22 10.7609 21.8849 11.0875 21.6547 11.344L13.3677 20.5802C13.1166 20.8601 12.8236 21 12.4888 21C12.154 21 11.861 20.8601 11.6099 20.5802L8.34529 16.9417C8.1151 16.6851 8 16.3586 8 15.9621C8 15.5656 8.1151 15.2391 8.34529 14.9825C8.57549 14.7259 8.86846 14.5977 9.22422 14.5977C9.57997 14.5977 9.87294 14.7259 10.1031 14.9825L12.4888 17.6414Z" fill="#00A689"/>
</svg>
