<svg width="40" height="40" viewBox="0 0 40 40" fill="none" xmlns="http://www.w3.org/2000/svg">
<path d="M31.4412 5H8.55882C6.59653 5 5 6.59653 5 8.55882V31.4412C5 33.4035 6.59653 35 8.55882 35H31.4412C33.4035 35 35 33.4035 35 31.4412V8.55882C35 6.59653 33.4035 5 31.4412 5ZM33.2353 31.4412C33.2353 32.4304 32.4304 33.2353 31.4412 33.2353H8.55882C7.56959 33.2353 6.76471 32.4304 6.76471 31.4412V8.55882C6.76471 7.56959 7.56959 6.76471 8.55882 6.76471H31.4412C32.4304 6.76471 33.2353 7.56959 33.2353 8.55882V31.4412Z" fill="black"/>
<path d="M20.0018 8.52941C13.677 8.52941 8.53125 13.6751 8.53125 20C8.53125 26.3249 13.677 31.4706 20.0018 31.4706C26.3267 31.4706 31.4724 26.3249 31.4724 20C31.4724 13.6751 26.3267 8.52941 20.0018 8.52941ZM29.6671 20.8824C29.4847 22.8971 28.6844 24.736 27.4571 26.2075L26.241 24.9913L24.9931 26.2391L26.2093 27.4553C24.7378 28.6825 22.8989 29.4829 20.8842 29.6653V27.9412H19.1195V29.6654C17.1048 29.4829 15.2658 28.6826 13.7944 27.4554L15.0105 26.2392L13.7627 24.9914L12.5465 26.2075C11.3192 24.736 10.5189 22.8971 10.3365 20.8824H12.0607V19.1176H10.3365C10.5189 17.1029 11.3193 15.264 12.5465 13.7925L13.7627 15.0087L15.0105 13.7609L13.7943 12.5447C15.2658 11.3175 17.1047 10.5171 19.1194 10.3347V12.0588H20.8841V10.3346C22.8988 10.5171 24.7378 11.3174 26.2093 12.5446L24.9931 13.7608L26.2409 15.0086L27.4571 13.7925C28.6843 15.264 29.4847 17.1029 29.6671 19.1176H27.943V20.8823H29.6671V20.8824Z" fill="black"/>
<path d="M20.8819 15.5882H19.1172V20.5454L23.1344 22.5539L23.9235 20.9755L20.8819 19.4547V15.5882Z" fill="black"/>
</svg>
