<svg width="28" height="28" viewBox="0 0 28 28" fill="none" xmlns="http://www.w3.org/2000/svg">
<path d="M27.9986 6.14074V7.54606C27.9986 7.91877 27.8506 8.27622 27.587 8.53977C27.3235 8.80332 26.9661 8.95138 26.5935 8.95138H20.2704C20.0841 8.95138 19.9054 9.02541 19.7736 9.15719C19.6418 9.28896 19.5678 9.46768 19.5678 9.65404V12.5617C19.568 12.7841 19.5022 13.0017 19.3787 13.1867C19.2552 13.3718 19.0795 13.516 18.874 13.6012C18.6685 13.6863 18.4423 13.7086 18.2242 13.6651C18.006 13.6217 17.8056 13.5145 17.6484 13.3571L11.9338 7.63881C11.7231 7.42799 11.6048 7.14215 11.6048 6.8441C11.6048 6.54606 11.7231 6.26021 11.9338 6.04939L17.6498 0.329733C17.8071 0.172238 18.0076 0.0649915 18.2259 0.021583C18.4442 -0.0218255 18.6705 0.000558406 18.8761 0.0858981C19.0816 0.171238 19.2573 0.315692 19.3807 0.500953C19.504 0.686215 19.5697 0.903945 19.5692 1.12655V4.03276C19.5692 4.21911 19.6432 4.39784 19.775 4.52961C19.9068 4.66139 20.0855 4.73542 20.2718 4.73542H26.5949C26.9675 4.73542 27.3249 4.88348 27.5884 5.14703C27.852 5.41057 28 5.76802 28 6.14074H27.9986ZM10.3502 14.6443C10.193 14.4869 9.99259 14.3797 9.77442 14.3363C9.55625 14.2928 9.33009 14.3151 9.12458 14.4002C8.91907 14.4854 8.74344 14.6296 8.61994 14.8147C8.49643 14.9997 8.4306 15.2173 8.43077 15.4398V18.3474C8.43077 18.5337 8.35675 18.7124 8.225 18.8442C8.09324 18.976 7.91454 19.05 7.72821 19.05H1.40513C1.03247 19.05 0.675065 19.1981 0.411553 19.4616C0.14804 19.7252 0 20.0826 0 20.4553V21.8607C0 22.2334 0.14804 22.5908 0.411553 22.8544C0.675065 23.1179 1.03247 23.266 1.40513 23.266H7.72821C7.91454 23.266 8.09324 23.34 8.225 23.4718C8.35675 23.6036 8.43077 23.7823 8.43077 23.9687V26.8749C8.4306 27.0973 8.49643 27.3149 8.61994 27.4999C8.74344 27.685 8.91907 27.8292 9.12458 27.9144C9.33009 27.9995 9.55625 28.0218 9.77442 27.9783C9.99259 27.9349 10.193 27.8277 10.3502 27.6703L16.0676 21.952C16.2783 21.7412 16.3966 21.4553 16.3966 21.1573C16.3966 20.8593 16.2783 20.5734 16.0676 20.3626L10.3502 14.6443Z" fill="#00A689"/>
</svg>
