<svg width="40" height="40" viewBox="0 0 40 40" fill="none" xmlns="http://www.w3.org/2000/svg">
<path d="M12.1523 34.7066L3.334 36.6666L5.294 27.8483C4.00322 25.434 3.32988 22.7377 3.334 20C3.334 10.795 10.7957 3.33331 20.0007 3.33331C29.2057 3.33331 36.6673 10.795 36.6673 20C36.6673 29.205 29.2057 36.6666 20.0007 36.6666C17.2629 36.6708 14.5667 35.9974 12.1523 34.7066ZM11.6673 20C11.6673 22.2101 12.5453 24.3297 14.1081 25.8925C15.6709 27.4553 17.7905 28.3333 20.0007 28.3333C22.2108 28.3333 24.3304 27.4553 25.8932 25.8925C27.456 24.3297 28.334 22.2101 28.334 20H25.0007C25.0007 21.3261 24.4739 22.5978 23.5362 23.5355C22.5985 24.4732 21.3268 25 20.0007 25C18.6746 25 17.4028 24.4732 16.4651 23.5355C15.5275 22.5978 15.0007 21.3261 15.0007 20H11.6673Z" fill="#00A689"/>
</svg>
