<svg width="40" height="40" viewBox="0 0 40 40" fill="none" xmlns="http://www.w3.org/2000/svg">
<path d="M8.6137 2L4 9.06338V38H35V9.06338L30.3863 2H8.6137ZM32.0359 8.32812H24.3782L23.0005 4.10938H29.2804L32.0359 8.32812ZM16.4 10.4375H22.6V14.7969H16.4V10.4375ZM16.8005 8.32812L18.1782 4.10938H20.8218L22.1996 8.32812H16.8005ZM9.71964 4.10938H15.9995L14.6218 8.32812H6.96415L9.71964 4.10938ZM6.06667 35.8906V10.4375H14.3333V16.9062H24.6667V10.4375H32.9333V35.8906H6.06667Z" fill="black"/>
<path d="M13.9855 29.8113H16.1913V25.0093L17.6174 26.3629L19.1769 24.8822L15.0884 21L11 24.8822L12.5595 26.3629L13.9855 25.0093V29.8113ZM19.8231 24.8822L21.3826 26.3629L22.8087 25.0093V29.8113H25.0145V25.0093L26.4405 26.3629L28 24.8822L23.9116 21L19.8231 24.8822ZM13.9855 31.9056H25.0145V34H13.9855V31.9056Z" fill="black"/>
</svg>
