<svg width="40" height="40" viewBox="0 0 40 40" fill="none" xmlns="http://www.w3.org/2000/svg">
<path d="M5 36H23.7869C24.1723 35.9938 24.5516 35.9026 24.8975 35.7327C25.2433 35.5629 25.547 35.3187 25.7869 35.0177L31.3389 28.3733C32.3535 27.0925 32.2639 25.2615 31.1289 24.0856C29.9304 22.9243 28.0164 22.9461 26.8449 24.1346C26.0022 20.4957 22.7691 17.9063 19.0239 17.8708H18.938C15.5955 17.8803 12.6006 19.931 11.3909 23.0377H10C10 22.487 9.55225 22.0406 9 22.0406H5C4.4475 22.0406 4 22.487 4 23.0377V35.0029C4 35.5535 4.4475 36 5 36ZM18.938 19.8608H19C22.3828 19.8964 25.0959 22.6598 25.0598 26.0329C25.0598 26.0909 25.0529 26.1488 25.0508 26.2065L21.782 29.9955H16.25L15.709 29.5597L18.5998 29.0203C20.2568 28.9928 21.5774 27.6312 21.5498 25.9791C21.5222 24.3271 20.1567 23.0102 18.5 23.0377H13.583C14.6545 21.0856 16.7058 19.8686 18.938 19.8608ZM18.5 25.0319C19.0522 25.0319 19.5 25.4783 19.5 26.029C19.5 26.5796 19.0522 27.0261 18.5 27.0261C18.4375 27.0261 18.3752 27.0322 18.3139 27.0442L13.2139 28.0093C13.0263 28.0448 12.8528 28.1331 12.7139 28.2637C12.5751 28.3944 12.4767 28.562 12.4303 28.7466C12.3839 28.9313 12.3915 29.1254 12.4522 29.3059C12.513 29.4864 12.6243 29.6457 12.7729 29.7652L15.2729 31.7742C15.4502 31.9176 15.6716 31.9958 15.8999 31.9955H22.2439C22.3875 31.9953 22.5294 31.9641 22.6599 31.9043C22.7903 31.8444 22.9064 31.7572 23 31.6486L28.2998 25.4956C28.6962 25.121 29.3173 25.121 29.7139 25.4956C30.1272 25.9404 30.1633 26.6159 29.7998 27.1018L24.25 33.7456C24.1963 33.8203 24.1268 33.8823 24.0465 33.9273C23.9661 33.9722 23.8768 33.999 23.7849 34.0058H10V25.0319H18.5ZM6 24.0348H8V34.0058H6V24.0348ZM13.0669 15.9581L18.0998 11.9929H18.6628C18.5085 12.4359 18.4608 12.9089 18.5235 13.3738C18.5863 13.8386 18.7578 14.2821 19.0242 14.6687C19.2906 15.0552 19.6444 15.3739 20.0571 15.5989C20.4698 15.824 20.9298 15.9491 21.3999 15.9643L26.8198 16.9464C26.8793 16.9572 26.9396 16.9625 27 16.9623H30C30 17.513 30.4475 17.9594 31 17.9594H35C35.5523 17.9594 36 17.513 36 16.9623V4.9971C36 4.44645 35.5523 4 35 4H16.25V4.9971L16.2129 4C15.8275 4.00621 15.4483 4.09742 15.1026 4.26708C14.7568 4.43674 14.4529 4.68064 14.2129 4.98127L8.66288 11.6257C7.64769 12.9062 7.73756 14.7376 8.87281 15.9134C10.0427 17.0227 11.8735 17.0424 13.0669 15.9581ZM34 15.9652H32V5.9942H34V15.9652ZM10.1999 12.8991L15.7499 6.25438C15.8035 6.18026 15.8727 6.11872 15.9527 6.07411C16.0327 6.02949 16.1215 6.00288 16.2129 5.99614H30V14.9701H27.0898L21.6789 13.989C21.6199 13.9786 21.5598 13.9735 21.5 13.973C20.9822 13.9735 20.5496 13.5798 20.5031 13.0654C20.4566 12.5513 20.8113 12.0868 21.3208 11.9948L26.5939 12.0107H26.5998C27.1521 12.0123 27.6013 11.5673 27.6027 11.0167C27.6045 10.4658 27.1582 10.0181 26.6059 10.0165L21.5 9.98454C21.3999 9.98454 21.2908 9.99065 21.1899 10.0006H17.7559C17.5308 10.0007 17.3124 10.0767 17.136 10.2161L11.7859 14.4296C11.7559 14.4537 11.7268 14.4795 11.699 14.5065C11.3025 14.8809 10.6814 14.8809 10.2849 14.5065C9.87081 14.0616 9.83519 13.385 10.1999 12.8991Z" fill="black"/>
</svg>
