<svg width="40" height="40" viewBox="0 0 40 40" fill="none" xmlns="http://www.w3.org/2000/svg">
<path d="M26.3636 18.75H27.6364C27.9739 18.75 28.2976 18.6183 28.5363 18.3839C28.775 18.1495 28.9091 17.8315 28.9091 17.5V16.25C28.9091 15.9185 28.775 15.6005 28.5363 15.3661C28.2976 15.1317 27.9739 15 27.6364 15H26.3636C26.0261 15 25.7024 15.1317 25.4637 15.3661C25.225 15.6005 25.0909 15.9185 25.0909 16.25V17.5C25.0909 17.8315 25.225 18.1495 25.4637 18.3839C25.7024 18.6183 26.0261 18.75 26.3636 18.75ZM12.3636 20H18.7273C19.0648 20 19.3885 19.8683 19.6272 19.6339C19.8659 19.3995 20 19.0815 20 18.75C20 18.4185 19.8659 18.1005 19.6272 17.8661C19.3885 17.6317 19.0648 17.5 18.7273 17.5H12.3636C12.0261 17.5 11.7024 17.6317 11.4637 17.8661C11.225 18.1005 11.0909 18.4185 11.0909 18.75C11.0909 19.0815 11.225 19.3995 11.4637 19.6339C11.7024 19.8683 12.0261 20 12.3636 20ZM32.7273 10H7.27273C6.93518 10 6.61146 10.1317 6.37277 10.3661C6.13409 10.6005 6 10.9185 6 11.25V28.75C6 29.0815 6.13409 29.3995 6.37277 29.6339C6.61146 29.8683 6.93518 30 7.27273 30H32.7273C33.0648 30 33.3885 29.8683 33.6272 29.6339C33.8659 29.3995 34 29.0815 34 28.75V11.25C34 10.9185 33.8659 10.6005 33.6272 10.3661C33.3885 10.1317 33.0648 10 32.7273 10ZM31.4545 27.5H8.54545V12.5H31.4545V27.5ZM12.3636 25H18.7273C19.0648 25 19.3885 24.8683 19.6272 24.6339C19.8659 24.3995 20 24.0815 20 23.75C20 23.4185 19.8659 23.1005 19.6272 22.8661C19.3885 22.6317 19.0648 22.5 18.7273 22.5H12.3636C12.0261 22.5 11.7024 22.6317 11.4637 22.8661C11.225 23.1005 11.0909 23.4185 11.0909 23.75C11.0909 24.0815 11.225 24.3995 11.4637 24.6339C11.7024 24.8683 12.0261 25 12.3636 25Z" fill="#0B0B0B"/>
</svg>
