<svg width="14" height="15" viewBox="0 0 14 15" fill="none" xmlns="http://www.w3.org/2000/svg">
<path d="M7.00065 4.16669C7.18954 4.16669 7.34798 4.23069 7.47598 4.35869C7.60398 4.48669 7.66776 4.64491 7.66732 4.83335V7.50002C7.66732 7.68891 7.60332 7.84735 7.47532 7.97535C7.34732 8.10335 7.1891 8.16713 7.00065 8.16669C6.81176 8.16669 6.65332 8.10269 6.52532 7.97469C6.39732 7.84669 6.33354 7.68846 6.33398 7.50002V4.83335C6.33398 4.64446 6.39798 4.48602 6.52598 4.35802C6.65398 4.23002 6.81221 4.16624 7.00065 4.16669ZM7.00065 9.50002C7.18954 9.50002 7.34798 9.56402 7.47598 9.69202C7.60398 9.82002 7.66776 9.97824 7.66732 10.1667C7.66732 10.3556 7.60332 10.514 7.47532 10.642C7.34732 10.77 7.1891 10.8338 7.00065 10.8334C6.81176 10.8334 6.65332 10.7694 6.52532 10.6414C6.39732 10.5134 6.33354 10.3551 6.33398 10.1667C6.33398 9.9778 6.39798 9.81935 6.52598 9.69135C6.65398 9.56335 6.81221 9.49958 7.00065 9.50002ZM7.00065 0.833353C6.07843 0.833353 5.21176 1.00846 4.40065 1.35869C3.58954 1.70891 2.88398 2.1838 2.28398 2.78335C1.68398 3.38335 1.2091 4.08891 0.859318 4.90002C0.50954 5.71113 0.334429 6.5778 0.333984 7.50002C0.333984 8.42224 0.509096 9.28891 0.859318 10.1C1.20954 10.9111 1.68443 11.6167 2.28398 12.2167C2.88398 12.8167 3.58954 13.2916 4.40065 13.6414C5.21176 13.9911 6.07843 14.1662 7.00065 14.1667C7.92287 14.1667 8.78954 13.9916 9.60065 13.6414C10.4118 13.2911 11.1173 12.8162 11.7173 12.2167C12.3173 11.6167 12.7924 10.9111 13.1427 10.1C13.4929 9.28891 13.6678 8.42224 13.6673 7.50002C13.6673 6.5778 13.4922 5.71113 13.142 4.90002C12.7918 4.08891 12.3169 3.38335 11.7173 2.78335C11.1173 2.18335 10.4118 1.70824 9.60065 1.35802C8.78954 1.0078 7.92287 0.832909 7.00065 0.833353ZM7.00065 2.16669C8.48954 2.16669 9.75065 2.68335 10.784 3.71669C11.8173 4.75002 12.334 6.01113 12.334 7.50002C12.334 8.98891 11.8173 10.25 10.784 11.2834C9.75065 12.3167 8.48954 12.8334 7.00065 12.8334C5.51176 12.8334 4.25065 12.3167 3.21732 11.2834C2.18398 10.25 1.66732 8.98891 1.66732 7.50002C1.66732 6.01113 2.18398 4.75002 3.21732 3.71669C4.25065 2.68335 5.51176 2.16669 7.00065 2.16669Z" fill="#8A928F"/>
</svg>
