<svg width="40" height="40" viewBox="0 0 40 40" fill="none" xmlns="http://www.w3.org/2000/svg">
<g clip-path="url(#clip0_1329_6019)">
<path d="M20.0007 5C19.5759 5.00047 19.1673 5.16313 18.8584 5.45475C18.5495 5.74636 18.3636 6.14492 18.3387 6.56899C18.3138 6.99306 18.4518 7.41063 18.7244 7.73639C18.9971 8.06214 19.3838 8.27149 19.8057 8.32167L20.0007 8.33333H28.334C28.7422 8.33339 29.1362 8.48326 29.4413 8.75453C29.7463 9.02579 29.9412 9.39958 29.989 9.805L30.0007 10V30C30.0006 30.4082 29.8507 30.8022 29.5795 31.1073C29.3082 31.4123 28.9344 31.6072 28.529 31.655L28.334 31.6667H20.834C20.4092 31.6671 20.0006 31.8298 19.6917 32.1214C19.3828 32.413 19.1969 32.8116 19.172 33.2357C19.1471 33.6597 19.2851 34.0773 19.5578 34.4031C19.8304 34.7288 20.2172 34.9382 20.639 34.9883L20.834 35H28.334C29.6093 35.0001 30.8365 34.5128 31.7644 33.6379C32.6923 32.7629 33.2508 31.5665 33.3257 30.2933L33.334 30V10C33.3341 8.72465 32.8468 7.49748 31.9718 6.56957C31.0969 5.64166 29.9005 5.08315 28.6273 5.00833L28.334 5H20.0007ZM16.179 14.1067C15.8791 13.8078 15.4766 13.6342 15.0533 13.6213C14.6301 13.6084 14.2178 13.757 13.9002 14.0371C13.5826 14.3171 13.3835 14.7076 13.3433 15.1291C13.3032 15.5507 13.425 15.9717 13.684 16.3067L13.8223 16.465L15.6907 18.3333H6.66732C6.24252 18.3338 5.83393 18.4965 5.52504 18.7881C5.21615 19.0797 5.03026 19.4783 5.00537 19.9023C4.98047 20.3264 5.11844 20.744 5.39109 21.0697C5.66374 21.3955 6.05049 21.6048 6.47232 21.655L6.66732 21.6667H15.6907L13.8223 23.535C13.5202 23.8342 13.3439 24.2376 13.3295 24.6626C13.3151 25.0875 13.4636 25.5019 13.7448 25.821C14.0259 26.14 14.4183 26.3395 14.8417 26.3787C15.2651 26.4178 15.6874 26.2937 16.0223 26.0317L16.179 25.8933L20.894 21.1783C21.1809 20.8913 21.3533 20.5095 21.3788 20.1045C21.4043 19.6994 21.2811 19.299 21.0323 18.9783L20.894 18.8217L16.179 14.1067Z" fill="#00A689"/>
</g>
<defs>
<clipPath id="clip0_1329_6019">
<rect width="40" height="40" fill="white" transform="matrix(-1 0 0 1 40 0)"/>
</clipPath>
</defs>
</svg>
