<svg width="20" height="20" viewBox="0 0 20 20" fill="none" xmlns="http://www.w3.org/2000/svg">
<mask id="path-1-inside-1_1327_5686" fill="white">
<path d="M10 9.55C9.43168 9.55 8.88663 9.31295 8.48477 8.89099C8.08291 8.46903 7.85714 7.89674 7.85714 7.3C7.85714 6.70326 8.08291 6.13097 8.48477 5.70901C8.88663 5.28705 9.43168 5.05 10 5.05C10.5683 5.05 11.1134 5.28705 11.5152 5.70901C11.9171 6.13097 12.1429 6.70326 12.1429 7.3C12.1429 7.59547 12.0874 7.88806 11.9797 8.16104C11.8721 8.43402 11.7142 8.68206 11.5152 8.89099C11.3162 9.09992 11.08 9.26566 10.82 9.37873C10.5601 9.4918 10.2814 9.55 10 9.55ZM10 1C8.4087 1 6.88258 1.66375 5.75736 2.84523C4.63214 4.02671 4 5.62914 4 7.3C4 12.025 10 19 10 19C10 19 16 12.025 16 7.3C16 5.62914 15.3679 4.02671 14.2426 2.84523C13.1174 1.66375 11.5913 1 10 1Z"/>
</mask>
<path d="M10 9.55C9.43168 9.55 8.88663 9.31295 8.48477 8.89099C8.08291 8.46903 7.85714 7.89674 7.85714 7.3C7.85714 6.70326 8.08291 6.13097 8.48477 5.70901C8.88663 5.28705 9.43168 5.05 10 5.05C10.5683 5.05 11.1134 5.28705 11.5152 5.70901C11.9171 6.13097 12.1429 6.70326 12.1429 7.3C12.1429 7.59547 12.0874 7.88806 11.9797 8.16104C11.8721 8.43402 11.7142 8.68206 11.5152 8.89099C11.3162 9.09992 11.08 9.26566 10.82 9.37873C10.5601 9.4918 10.2814 9.55 10 9.55ZM10 1C8.4087 1 6.88258 1.66375 5.75736 2.84523C4.63214 4.02671 4 5.62914 4 7.3C4 12.025 10 19 10 19C10 19 16 12.025 16 7.3C16 5.62914 15.3679 4.02671 14.2426 2.84523C13.1174 1.66375 11.5913 1 10 1Z" fill="#8A928F"/>
<path d="M10 5.05V4.05V5.05ZM4 7.3H3H4ZM10 19L9.2419 19.6521L10 20.5334L10.7581 19.6521L10 19ZM10 8.55C9.71308 8.55 9.42742 8.43077 9.20891 8.20133L7.76063 9.58065C8.34585 10.1951 9.15028 10.55 10 10.55V8.55ZM9.20891 8.20133C8.98882 7.97024 8.85714 7.64684 8.85714 7.3H6.85714C6.85714 8.14664 7.177 8.96783 7.76063 9.58065L9.20891 8.20133ZM8.85714 7.3C8.85714 6.95316 8.98882 6.62976 9.20891 6.39866L7.76063 5.01935C7.177 5.63217 6.85714 6.45336 6.85714 7.3H8.85714ZM9.20891 6.39866C9.42742 6.16923 9.71308 6.05 10 6.05V4.05C9.15028 4.05 8.34585 4.40488 7.76063 5.01935L9.20891 6.39866ZM10 6.05C10.2869 6.05 10.5726 6.16923 10.7911 6.39866L12.2394 5.01935C11.6542 4.40488 10.8497 4.05 10 4.05V6.05ZM10.7911 6.39866C11.0112 6.62976 11.1429 6.95316 11.1429 7.3H13.1429C13.1429 6.45336 12.823 5.63217 12.2394 5.01935L10.7911 6.39866ZM11.1429 7.3C11.1429 7.47074 11.1108 7.63876 11.0495 7.79407L12.91 8.52801C13.0641 8.13735 13.1429 7.72021 13.1429 7.3H11.1429ZM11.0495 7.79407C10.9883 7.94932 10.8997 8.08731 10.7911 8.20133L12.2394 9.58065C12.5287 9.27681 12.7558 8.91872 12.91 8.52801L11.0495 7.79407ZM10.7911 8.20133C10.6826 8.31526 10.5564 8.40289 10.4212 8.46171L11.2189 10.2958C11.6036 10.1284 11.9499 9.88458 12.2394 9.58065L10.7911 8.20133ZM10.4212 8.46171C10.2861 8.52047 10.1431 8.55 10 8.55V10.55C10.4197 10.55 10.834 10.4631 11.2189 10.2958L10.4212 8.46171ZM10 0C8.12731 0 6.34179 0.781573 5.03322 2.15557L6.4815 3.53488C7.42336 2.54592 8.6901 2 10 2V0ZM5.03322 2.15557C3.72623 3.52791 3 5.37924 3 7.3H5C5 5.87904 5.53805 4.5255 6.4815 3.53488L5.03322 2.15557ZM3 7.3C3 8.67398 3.43106 10.1389 4.01772 11.5139C4.60958 12.9011 5.39069 14.2672 6.15871 15.4625C6.92846 16.6604 7.6964 17.7041 8.2713 18.4479C8.55916 18.8203 8.79964 19.1188 8.96911 19.3254C9.05387 19.4287 9.12094 19.5091 9.16737 19.5643C9.19059 19.5919 9.20865 19.6132 9.22119 19.6279C9.22746 19.6353 9.23236 19.641 9.23582 19.645C9.23755 19.6471 9.23893 19.6487 9.23994 19.6499C9.24045 19.6505 9.24087 19.6509 9.24119 19.6513C9.24136 19.6515 9.24153 19.6517 9.24161 19.6518C9.24177 19.652 9.2419 19.6521 10 19C10.7581 18.3479 10.7582 18.348 10.7582 18.348C10.7582 18.348 10.7583 18.3481 10.7583 18.348C10.7582 18.348 10.7581 18.3478 10.7579 18.3476C10.7574 18.3471 10.7566 18.3461 10.7555 18.3448C10.7532 18.3421 10.7495 18.3378 10.7444 18.3318C10.7342 18.3198 10.7186 18.3014 10.6979 18.2768C10.6564 18.2275 10.5946 18.1534 10.5153 18.0567C10.3566 17.8634 10.1283 17.5801 9.8537 17.2248C9.3036 16.5131 8.57154 15.5177 7.84129 14.3813C7.10931 13.2421 6.39042 11.9786 5.85728 10.729C5.31894 9.46731 5 8.28852 5 7.3H3ZM10 19C10.7581 19.6521 10.7582 19.652 10.7584 19.6518C10.7585 19.6517 10.7586 19.6515 10.7588 19.6513C10.7591 19.6509 10.7595 19.6505 10.7601 19.6499C10.7611 19.6487 10.7624 19.6471 10.7642 19.645C10.7676 19.641 10.7725 19.6353 10.7788 19.6279C10.7913 19.6132 10.8094 19.5919 10.8326 19.5643C10.8791 19.5091 10.9461 19.4287 11.0309 19.3254C11.2004 19.1188 11.4408 18.8203 11.7287 18.4479C12.3036 17.7041 13.0715 16.6604 13.8413 15.4625C14.6093 14.2672 15.3904 12.9011 15.9823 11.5139C16.5689 10.1389 17 8.67398 17 7.3H15C15 8.28852 14.6811 9.46731 14.1427 10.729C13.6096 11.9786 12.8907 13.2421 12.1587 14.3813C11.4285 15.5177 10.6964 16.5131 10.1463 17.2248C9.87166 17.5801 9.64339 17.8634 9.48474 18.0567C9.40544 18.1534 9.3436 18.2275 9.30214 18.2768C9.28141 18.3014 9.26578 18.3198 9.25562 18.3318C9.25054 18.3378 9.24682 18.3421 9.24452 18.3448C9.24337 18.3461 9.24257 18.3471 9.24213 18.3476C9.24191 18.3478 9.24178 18.348 9.24174 18.348C9.24172 18.3481 9.24176 18.348 9.24175 18.348C9.24181 18.348 9.2419 18.3479 10 19ZM17 7.3C17 5.37924 16.2738 3.52791 14.9668 2.15557L13.5185 3.53488C14.4619 4.5255 15 5.87904 15 7.3H17ZM14.9668 2.15557C13.6582 0.781573 11.8727 0 10 0V2C11.3099 2 12.5766 2.54592 13.5185 3.53488L14.9668 2.15557Z" fill="#8A928F" mask="url(#path-1-inside-1_1327_5686)"/>
</svg>
