<svg width="40" height="40" viewBox="0 0 40 40" fill="none" xmlns="http://www.w3.org/2000/svg">
<path opacity="0.7" d="M38.7671 28.6862L27.6116 11.3071C27.5154 11.6693 27.387 12.0173 27.2286 12.3494L38.0368 29.1872C38.1862 29.3937 38.0726 29.5786 38.0346 29.6303C37.9966 29.6823 37.8534 29.8451 37.6124 29.7608L27.3018 26.1615C27.2037 26.1275 27.1027 26.1088 27.0017 26.0998L24.1548 19.0517C24.0538 19.5661 23.956 20.1363 23.8661 20.701L26.1459 26.3452C26.1212 26.3635 26.0929 26.3751 26.0694 26.3953L20.6395 31.0633L14.2759 13.0005L16.2209 11.9424C16.1121 11.663 16.0225 11.3746 15.9561 11.077L13.8336 12.2318C13.7485 12.2804 13.6461 12.295 13.5514 12.269L7.52322 10.6649C7.1049 10.5546 6.66576 10.6627 6.34772 10.957L0.405799 16.4503C0.0926077 16.7404 -0.0527249 17.1647 0.0172769 17.5855L2.72773 33.9436C2.79991 34.3795 3.08694 34.7393 3.49484 34.9058C3.64962 34.9689 3.81118 35 3.97153 35C4.23386 35 4.49304 34.9167 4.71346 34.7546L12.3047 29.1706C12.4093 29.0934 12.5488 29.0766 12.668 29.1269L19.7585 32.0789C20.1994 32.2621 20.6971 32.1826 21.0597 31.8714L26.6456 27.0693C26.7459 26.9828 26.8854 26.9558 27.0109 27L37.3215 30.5993C37.8522 30.7849 38.41 30.6119 38.7453 30.16C39.0798 29.7078 39.0832 29.1213 38.7673 28.6862H38.7671ZM4.18953 34.0386C4.03839 34.1499 3.88651 34.1071 3.82838 34.0836C3.77049 34.06 3.6317 33.9844 3.60069 33.7981L0.890241 17.4394C0.86941 17.3148 0.912768 17.1892 1.00554 17.1032L6.79946 11.7468L11.8759 28.4026C11.8449 28.4216 11.8103 28.4332 11.7807 28.4549L4.18953 34.0386ZM12.7513 28.2381L7.68866 11.6275L13.3242 13.1269C13.3445 13.1325 13.3653 13.1327 13.3859 13.1371L19.714 31.0988L13.0076 28.3067C12.9247 28.2724 12.8383 28.2535 12.7516 28.2379L12.7513 28.2381Z" fill="black"/>
<path d="M26.5735 9.77396C26.5735 7.13734 24.4427 5 21.8141 5C19.1855 5 17.0547 7.13734 17.0547 9.77396C17.0547 10.8877 17.4381 11.9101 18.0754 12.7221H18.0708C18.0708 12.7221 18.0846 12.7379 18.104 12.7602C18.1374 12.802 18.1721 12.8423 18.2069 12.8827C18.5618 13.3125 19.5195 14.5457 19.9291 15.7975C20.4366 17.3488 21.0145 22.0997 21.0145 22.0997V22.1305C21.0145 22.5006 21.3137 22.8004 21.6823 22.8004H21.9454C22.3143 22.8004 22.6134 22.5003 22.6134 22.1305V22.0997C22.6134 22.0997 23.1911 17.3488 23.6986 15.7975C24.1082 14.5457 25.0659 13.3125 25.4208 12.8827C25.4556 12.8421 25.4903 12.8018 25.5237 12.7602C25.5431 12.7376 25.5566 12.7221 25.5566 12.7221H25.552C26.1896 11.9098 26.573 10.8877 26.573 9.77396H26.5735ZM21.8141 12.4312C20.3174 12.4312 19.1039 11.2142 19.1039 9.71298C19.1039 8.21172 20.3172 6.99448 21.8141 6.99448C23.311 6.99448 24.5243 8.21147 24.5243 9.71298C24.5243 11.2145 23.311 12.4312 21.8141 12.4312Z" fill="#01A689"/>
</svg>
