<svg width="14" height="14" viewBox="0 0 14 14" fill="none" xmlns="http://www.w3.org/2000/svg">
<path d="M4.48879 9.6414L11.8969 1.38484C12.1271 1.12828 12.42 1 12.7758 1C13.1315 1 13.4245 1.12828 13.6547 1.38484C13.8849 1.6414 14 1.96793 14 2.36443C14 2.76093 13.8849 3.08746 13.6547 3.34402L5.36771 12.5802C5.11659 12.8601 4.82362 13 4.48879 13C4.15396 13 3.86099 12.8601 3.60987 12.5802L0.345291 8.94169C0.115097 8.68513 0 8.3586 0 7.9621C0 7.5656 0.115097 7.23907 0.345291 6.98251C0.575485 6.72595 0.86846 6.59767 1.22422 6.59767C1.57997 6.59767 1.87294 6.72595 2.10314 6.98251L4.48879 9.6414Z" fill="#00A689"/>
</svg>
