<svg width="20" height="20" viewBox="0 0 20 20" fill="none" xmlns="http://www.w3.org/2000/svg">
<path d="M2.88889 15C2.63704 15 2.42607 14.912 2.256 14.736C2.08533 14.5606 2 14.3431 2 14.0833C2 13.8236 2.08533 13.6061 2.256 13.4307C2.42607 13.2547 2.63704 13.1667 2.88889 13.1667H17.1111C17.363 13.1667 17.5739 13.2547 17.744 13.4307C17.9147 13.6061 18 13.8236 18 14.0833C18 14.3431 17.9147 14.5606 17.744 14.736C17.5739 14.912 17.363 15 17.1111 15H2.88889ZM2.88889 10.4167C2.63704 10.4167 2.42607 10.3287 2.256 10.1527C2.08533 9.97728 2 9.75972 2 9.5C2 9.24028 2.08533 9.02242 2.256 8.84642C2.42607 8.67103 2.63704 8.58333 2.88889 8.58333H17.1111C17.363 8.58333 17.5739 8.67103 17.744 8.84642C17.9147 9.02242 18 9.24028 18 9.5C18 9.75972 17.9147 9.97728 17.744 10.1527C17.5739 10.3287 17.363 10.4167 17.1111 10.4167H2.88889ZM2.88889 5.83333C2.63704 5.83333 2.42607 5.74564 2.256 5.57025C2.08533 5.39425 2 5.17639 2 4.91667C2 4.65694 2.08533 4.43908 2.256 4.26308C2.42607 4.08769 2.63704 4 2.88889 4H17.1111C17.363 4 17.5739 4.08769 17.744 4.26308C17.9147 4.43908 18 4.65694 18 4.91667C18 5.17639 17.9147 5.39425 17.744 5.57025C17.5739 5.74564 17.363 5.83333 17.1111 5.83333H2.88889Z" fill="#00A689"/>
</svg>
