<svg width="24" height="24" viewBox="0 0 24 24" fill="none" xmlns="http://www.w3.org/2000/svg">
<path d="M12.0002 13.022L8.42301 16.5992C8.28917 16.733 8.11883 16.8 7.91198 16.8C7.70514 16.8 7.5348 16.733 7.40096 16.5992C7.26712 16.4654 7.2002 16.295 7.2002 16.0882C7.2002 15.8813 7.26712 15.711 7.40096 15.5771L10.9781 12L7.40096 8.42276C7.26712 8.28892 7.2002 8.11858 7.2002 7.91174C7.2002 7.70489 7.26712 7.53455 7.40096 7.40071C7.5348 7.26687 7.70514 7.19995 7.91198 7.19995C8.11883 7.19995 8.28917 7.26687 8.42301 7.40071L12.0002 10.9779L15.5774 7.40071C15.7112 7.26687 15.8816 7.19995 16.0884 7.19995C16.2953 7.19995 16.4656 7.26687 16.5994 7.40071C16.7333 7.53455 16.8002 7.70489 16.8002 7.91174C16.8002 8.11858 16.7333 8.28892 16.5994 8.42276L13.0222 12L16.5994 15.5771C16.7333 15.711 16.8002 15.8813 16.8002 16.0882C16.8002 16.295 16.7333 16.4654 16.5994 16.5992C16.4656 16.733 16.2953 16.8 16.0884 16.8C15.8816 16.8 15.7112 16.733 15.5774 16.5992L12.0002 13.022Z" fill="#8A928F"/>
</svg>
