<svg width="40" height="40" viewBox="0 0 40 40" fill="none" xmlns="http://www.w3.org/2000/svg">
<path d="M17.1472 35.0754H22.854C23.17 35.0754 23.4262 34.8348 23.4262 34.5364V14.1334C23.4262 13.8351 23.17 13.5944 22.854 13.5944H17.1472C16.8312 13.5944 16.5751 13.8351 16.5751 14.1334V34.5364C16.5751 34.8348 16.8312 35.0754 17.1472 35.0754Z" fill="#0B0B0B"/>
<path d="M15.6602 34.1771H6.94954C6.67177 34.1771 6.44556 33.9529 6.44556 33.6777V15.6777C6.44556 15.4025 6.67177 15.1783 6.94954 15.1783H15.6602V14.2801H6.66678C6.04471 14.2801 5.53906 14.7795 5.53906 15.3975V33.9563C5.53906 34.5727 6.04304 35.0738 6.66678 35.0738H15.6602V34.1755V34.1771Z" fill="#0B0B0B"/>
<path d="M33.3344 14.2817H24.341V15.18H33.0517C33.3294 15.18 33.5556 15.4041 33.5556 15.6794V33.6793C33.5556 33.9546 33.3294 34.1788 33.0517 34.1788H24.341V35.077H33.3344C33.9565 35.077 34.4621 34.5777 34.4621 33.9596V15.4009C34.4621 14.7844 33.9582 14.2834 33.3344 14.2834V14.2817Z" fill="#0B0B0B"/>
<path d="M15.77 13.3851C15.9596 12.978 16.3738 12.6928 16.8561 12.6928H19.3827L12.0558 4.91172C11.7016 4.53593 11.1061 4.51449 10.7269 4.86556L7.0227 8.29052C6.64347 8.64159 6.62184 9.23164 6.97613 9.60743L10.5323 13.3834H15.77V13.3851Z" fill="#0B0B0B"/>
<path d="M24.2312 13.3851C24.0416 12.978 23.6274 12.6928 23.1451 12.6928H20.6185L27.9453 4.91172C28.2996 4.53593 28.8951 4.51449 29.2743 4.86556L32.9785 8.29052C33.3577 8.64159 33.3793 9.23164 33.025 9.60743L29.4689 13.3834H24.2312V13.3851Z" fill="#0B0B0B"/>
</svg>
