<svg width="12" height="16" viewBox="0 0 12 16" fill="none" xmlns="http://www.w3.org/2000/svg">
<path d="M1.95872 16V0H6.19137C8.1576 0 9.61351 0.395892 10.5591 1.18768C11.5197 1.97946 12 3.12979 12 4.63866C12 5.65453 11.7674 6.52848 11.3021 7.2605C10.8368 7.97759 10.1463 8.53034 9.23077 8.91877C8.33021 9.30719 7.21201 9.5014 5.87617 9.5014H3.98499V16H1.95872ZM0 12.9524V11.4958H7.69981V12.9524H0ZM0 9.5014V7.79832H5.15572V9.5014H0ZM5.58349 7.79832C6.49906 7.79832 7.27204 7.70121 7.90244 7.507C8.54784 7.31279 9.04315 6.9916 9.38837 6.54342C9.73358 6.09524 9.90619 5.48273 9.90619 4.70588C9.90619 3.69001 9.59099 2.93557 8.9606 2.44258C8.33021 1.94958 7.34709 1.70308 6.01126 1.70308H3.98499V7.79832H5.58349Z" fill="#0B0B0B"/>
</svg>
