<svg width="14" height="18" viewBox="0 0 14 18" fill="none" xmlns="http://www.w3.org/2000/svg">
  <path d="M2.80872 17V17.15H2.95872H4.98499H5.13499V17V14.1024H8.69981H8.84981V13.9524V12.4958V12.3458H8.69981H5.13499V10.6514H6.15572H6.30572H6.87617C8.22526 10.6514 9.36499 10.4554 10.2897 10.0567C11.228 9.65856 11.9438 9.08815 12.4279 8.34216L12.4287 8.34097C12.9117 7.58102 13.15 6.67806 13.15 5.63866C13.15 4.09568 12.6572 2.89861 11.655 2.0723C10.6704 1.24812 9.17284 0.85 7.19137 0.85H2.95872H2.80872V1V8.64832H1H0.85V8.79832V10.5014V10.6514H1H2.80872V12.3458H1H0.85V12.4958V13.9524V14.1024H1H2.80872V17ZM5.13499 8.64832V2.85308H7.01126C8.33409 2.85308 9.27673 3.09818 9.86819 3.56074C10.4527 4.01786 10.7562 4.72254 10.7562 5.70588C10.7562 6.4618 10.5882 7.03819 10.2695 7.45188C9.9469 7.87075 9.48048 8.17642 8.85922 8.36336L8.85828 8.36365C8.24653 8.55212 7.48944 8.64832 6.58349 8.64832H6.30572H6.15572H5.13499Z" fill="#0B0B0B" stroke="#0B0B0B" stroke-width="0.3"/>
</svg>
