<svg width="9" height="11" viewBox="0 0 9 11" fill="none" xmlns="http://www.w3.org/2000/svg">
<path d="M1.46904 11V0H4.64353C6.1182 0 7.21013 0.272176 7.91932 0.816527C8.63977 1.36088 9 2.15173 9 3.18908C9 3.88749 8.82552 4.48833 8.47655 4.9916C8.12758 5.48459 7.60976 5.86461 6.92308 6.13165C6.24765 6.39869 5.40901 6.53221 4.40713 6.53221H2.98874V11H1.46904ZM0 8.90476V7.90336H5.77486V8.90476H0ZM0 6.53221V5.36134H3.86679V6.53221H0ZM4.18762 5.36134C4.8743 5.36134 5.45403 5.29458 5.92683 5.16106C6.41088 5.02754 6.78236 4.80672 7.04128 4.4986C7.30019 4.19048 7.42964 3.76937 7.42964 3.23529C7.42964 2.53688 7.19325 2.01821 6.72045 1.67927C6.24765 1.34034 5.51032 1.17087 4.50844 1.17087H2.98874V5.36134H4.18762Z" fill="#0B0B0B"/>
</svg>
