<svg width="16" height="16" viewBox="0 0 16 16" fill="none" xmlns="http://www.w3.org/2000/svg">
<path d="M8.30223 12.5377L8 12.3084L7.69777 12.5377L3.94244 15.3871L3.93575 15.3922L3.92924 15.3975C3.82845 15.4795 3.74254 15.5031 3.65556 15.4997L3.65404 15.4996C3.52311 15.4948 3.42272 15.4594 3.33764 15.4002C3.24739 15.3374 3.17207 15.2499 3.11365 15.1228L3.11307 15.1215C3.08198 15.0544 3.07048 14.9735 3.11666 14.845L3.12042 14.8346L3.1237 14.824L4.57001 10.159L4.67759 9.81195L4.38079 9.60243L0.701587 7.00514L0.695548 7.00088L0.689386 6.99679C0.58298 6.9263 0.538921 6.8539 0.519665 6.77097C0.487744 6.63351 0.497763 6.5321 0.527551 6.45069C0.561772 6.35716 0.624714 6.26285 0.735891 6.16861C0.808153 6.10787 0.894583 6.07282 1.0222 6.07282H5.56411H5.93472L6.0425 5.71823L7.51019 0.889831C7.56502 0.742458 7.63811 0.653811 7.71916 0.596234L7.4296 0.188628L7.71887 0.596443C7.81793 0.526182 7.90814 0.5 8 0.5C8.09186 0.5 8.18207 0.526182 8.28113 0.596443L8.5704 0.188628L8.28084 0.596234C8.36188 0.65381 8.43498 0.742456 8.48981 0.889829L9.9575 5.71823L10.0653 6.07282H10.4359H14.9778C15.1054 6.07282 15.1919 6.10788 15.2641 6.16864C15.3753 6.26287 15.4382 6.35717 15.4724 6.45069C15.5022 6.5321 15.5123 6.63351 15.4803 6.77097C15.4611 6.8539 15.417 6.9263 15.3106 6.99679L15.3045 7.00088L15.2984 7.00514L11.6192 9.60243L11.3224 9.81195L11.43 10.159L12.8763 14.824L12.8796 14.8346L12.8833 14.845C12.9296 14.9738 12.9184 15.055 12.8876 15.1222C12.8285 15.2496 12.7528 15.3373 12.6624 15.4002C12.5773 15.4594 12.4769 15.4948 12.346 15.4996L12.3444 15.4997C12.2575 15.5031 12.1715 15.4795 12.0708 15.3975L12.0642 15.3922L12.0576 15.3871L8.30223 12.5377Z" stroke="#00A689"/>
</svg>
