<svg width="50" height="40" viewBox="0 0 50 40" fill="none" xmlns="http://www.w3.org/2000/svg">
<path d="M46.7667 32.6746C46.7135 32.5648 46.6637 32.4737 46.6175 32.4007C45.8541 31.0863 44.3953 29.473 42.242 27.5602L42.1964 27.5164L42.1738 27.4949L42.1507 27.4729H42.1276C41.1501 26.5822 40.5313 25.9833 40.2721 25.6767C39.798 25.0926 39.6917 24.5014 39.9509 23.9024C40.1339 23.4498 40.8219 22.494 42.0127 21.0337C42.6391 20.2597 43.1352 19.6394 43.5017 19.1721C46.1441 15.8137 47.2896 13.6677 46.9381 12.7331L46.8017 12.5147C46.7099 12.3832 46.4732 12.2629 46.0917 12.1532C45.7096 12.0438 45.221 12.0257 44.6252 12.0986L38.0277 12.1422C37.9207 12.106 37.7681 12.1094 37.5694 12.1532C37.3707 12.1971 37.2713 12.2191 37.2713 12.2191L37.1565 12.274L37.0654 12.3399C36.989 12.3834 36.905 12.4601 36.8133 12.5696C36.722 12.6788 36.6458 12.8069 36.5847 12.9529C35.8664 14.7196 35.0497 16.3622 34.1332 17.8806C33.5681 18.786 33.0491 19.5707 32.5752 20.2351C32.1018 20.8993 31.7047 21.3886 31.3841 21.7023C31.0631 22.0162 30.7736 22.2678 30.5134 22.4578C30.2538 22.6479 30.0555 22.7282 29.918 22.6988C29.7805 22.6694 29.651 22.6403 29.5282 22.6111C29.3146 22.4796 29.1428 22.3008 29.0132 22.0745C28.8829 21.8482 28.7954 21.5634 28.7496 21.2203C28.7039 20.8769 28.677 20.5816 28.6693 20.3333C28.6621 20.0853 28.6654 19.7345 28.681 19.2819C28.6968 18.8291 28.7039 18.5227 28.7039 18.3621C28.7039 17.8071 28.7153 17.2049 28.738 16.5551C28.7611 15.9054 28.7798 15.3906 28.7954 15.0113C28.811 14.6317 28.8183 14.23 28.8183 13.8066C28.8183 13.3831 28.7912 13.0511 28.738 12.81C28.6854 12.5693 28.6046 12.3357 28.4982 12.1091C28.391 11.8828 28.2342 11.7078 28.0285 11.5835C27.8223 11.4594 27.566 11.3609 27.2611 11.2877C26.4515 11.1126 25.4206 11.0178 24.168 11.0031C21.3275 10.974 19.5023 11.1493 18.6928 11.529C18.3721 11.6894 18.0819 11.9085 17.8224 12.1858C17.5474 12.5071 17.5091 12.6825 17.7076 12.7113C18.6241 12.8426 19.2729 13.1565 19.6547 13.6529L19.7923 13.916C19.8994 14.1058 20.0062 14.4418 20.1132 14.9235C20.22 15.4052 20.2889 15.9381 20.3193 16.5219C20.3955 17.588 20.3955 18.5005 20.3193 19.2596C20.2428 20.0191 20.1706 20.6103 20.1017 21.0337C20.0327 21.4572 19.9297 21.8003 19.7923 22.063C19.6547 22.3258 19.5632 22.4865 19.5173 22.5448C19.4715 22.6031 19.4333 22.6398 19.4029 22.6542C19.2044 22.727 18.998 22.764 18.7843 22.764C18.5703 22.764 18.3108 22.6617 18.0054 22.4572C17.7001 22.2527 17.3832 21.9717 17.0548 21.614C16.7264 21.2561 16.356 20.756 15.9435 20.1137C15.5313 19.4713 15.1036 18.7121 14.6607 17.8361L14.2942 17.2007C14.0652 16.792 13.7522 16.1969 13.3551 15.4159C12.9578 14.6346 12.6066 13.8788 12.3013 13.1488C12.1792 12.8422 11.9959 12.6087 11.7516 12.4481L11.6369 12.3822C11.5607 12.3239 11.4383 12.262 11.2704 12.196C11.1023 12.1301 10.9269 12.0829 10.7435 12.0538L4.46645 12.0974C3.82502 12.0974 3.3898 12.2363 3.16064 12.5138L3.06893 12.645C3.02311 12.7181 3 12.8349 3 12.9956C3 13.1562 3.04582 13.3534 3.13753 13.5868C4.05386 15.6457 5.05036 17.6314 6.12701 19.5441C7.20366 21.4568 8.13925 22.9975 8.93321 24.1649C9.72734 25.3331 10.5368 26.4357 11.3616 27.472C12.1864 28.5088 12.7323 29.1732 12.9994 29.4651C13.2669 29.7575 13.4769 29.9761 13.6296 30.1221L14.2025 30.6476C14.569 30.9981 15.1072 31.4179 15.8174 31.9069C16.5278 32.3963 17.3142 32.878 18.1771 33.3529C19.0402 33.8272 20.0442 34.2139 21.1898 34.5132C22.3352 34.8127 23.4501 34.933 24.5345 34.875H27.1691C27.7033 34.8308 28.1081 34.6703 28.3833 34.3931L28.4744 34.2833C28.5358 34.1961 28.5932 34.0608 28.646 33.8785C28.6997 33.6961 28.7263 33.4951 28.7263 33.2763C28.7107 32.6485 28.7606 32.0827 28.875 31.5791C28.9892 31.0756 29.1192 30.696 29.2649 30.4403C29.4103 30.1849 29.5744 29.9693 29.7572 29.7945C29.9403 29.6194 30.0707 29.5133 30.1473 29.4768C30.2234 29.4401 30.2841 29.4151 30.3299 29.4002C30.6964 29.2834 31.1278 29.3965 31.6246 29.7399C32.1211 30.0831 32.5869 30.5067 33.0222 31.0103C33.4576 31.5142 33.9806 32.0798 34.5913 32.7074C35.2026 33.3354 35.737 33.8021 36.1948 34.1092L36.6529 34.3721C36.9589 34.5473 37.356 34.708 37.8448 34.854C38.3328 34.9999 38.7603 35.0365 39.1272 34.9635L44.9917 34.876C45.5719 34.876 46.0231 34.7841 46.3432 34.602C46.6642 34.4194 46.8547 34.2184 46.9161 33.9998C46.9775 33.7809 46.9808 33.5325 46.9277 33.2547C46.8734 32.9777 46.8199 32.7839 46.7667 32.6746Z" fill="#555C5A"/>
</svg>
